<svg xmlns="http://www.w3.org/2000/svg" xmlns:xlink="http://www.w3.org/1999/xlink" width="500" height="418.7"><style><![CDATA[.B{fill:none}.C{stroke-linecap:round}.D{stroke-linejoin:round}.E{stroke-miterlimit:10}.F{stroke:#00ad9f}.G{fill:#0056ec}.H{fill:#5275a0}.I{opacity:.2}.J{stroke:#0b43a4}.K{fill:#0c2340}.L{fill:#ffb9a3}.M{fill:#c8dbfb}.N{fill:#5193f4}.O{fill:#52d2bc}.P{fill:#4a49ca}.Q{fill:#0b43a4}.R{stroke:#c8dbfb}.S{fill:#00ad9f}.T{stroke-dasharray:4}.U{fill:#ef832b}]]></style><path fill="#ecf3ff" d="M112.4 57.7c15.6 1 22.2-9.6 29.5-23.3C162-3 206.7.5 221.8 23.6c10.6 16.4 33.6 13 52 6.6C292 24 323.2 18 348 25.4c21.6 6.6 30.5 30.3 50.2 28.8 43-3.2 64.7 39.3 57 57.8-5 12-7.6 25.6-3.5 38 4.6 13.7 15 24.6 23.4 36.3s15.2 26.5 11 40.3c-3.6 11.8-14.2 20-21 30.5-20.6 32.5-.2 82.2-27.6 109.3-19.6 19.4-51.6 15-79 18.6-23 3-44.4 12.7-67.2 16.5-46 7.6-92.8-9.2-139.5-9.6-16.5-.2-33.3 1.7-49.2-2.4-21.3-5.4-39.4-21.8-46.8-42.3-10.2-28.3-.5-61-12-89-9.4-22.6-32.3-41-31-65.5 1-15.2 11.3-28 18.4-41.4 10.6-20-3.4-99.4 81.2-93.7zM248.6 21c-4 0-7.4 2.6-7.4 5.7s3.3 5.4 7.4 5.7c13.3 1 13.3-4.5 13.3-7.7 0-5-9.2-3.7-13.3-3.7zm135.6 24.3a22 22 0 0 0 12.8 5c1.2.1 2.6 0 3.5-.8 1.2-1 1.3-3 .3-4-.7-.7-1.6-1-2.5-1.4-1.5-.6-3-1.5-4-3-.3-.4-.5-1-1-1-2.6-1.5-14 1.4-9.3 5.3zm22.7 5c1.2.4 2.5 0 3.6-.4.8-.2 1.7-.8 1.5-1.6-.1-.4-.4-.6-.8-.8-1.6-.8-3.6-1.4-5-.4s-.4 2.7.8 3zm54.3 107.3c.2 1.8 1.3 3.3 2.4 4.7l6.8 7.8c1 1 2.5 1.7 4 1.8 1.3 0 2.6-.6 3.7-1.3 2.6-2 4.4-5 4.8-8 .5-4.4-1.5-8.7-4-12.4-1.5-2.3-3.2-4.6-5.7-6-4-2-7-.3-8 3.4-1 3.4-4.4 6.3-4 10zM20.8 260c-2.2 2-.2 7.5.4 11.2.2 1 .5 2.3 1.2 3.2 1 1.2 2.6 1.7 4 2 2.7.8 6 1.4 8-.4 1.5-1.4 1.7-3.6 1.7-5.7l-.3-5.6c-.1-1-.2-1.8-.7-2.6-.6-1-1.7-1.5-2.7-2-3.8-1.6-9.3-2.3-11.5-.3zM154 400.8c-1.3.3-2.8.8-3 2-.2 1 .7 2 1.6 2.6 7 5.3 16.7 5.6 25.6 5.8 1 0 2 0 3-.4 2-.8 2.8-3.3 2-5.2-.3-.7-.8-1.2-1.4-1.8-7.2-7-19-5-27.8-3.2zm177.7-3.6c-8 6 .1 11 10.2 7.2 5.5-2 10.7-4.2 16.3-5.6 1.8-.5 12.7-2.8 12.7-5.3 0-6.5-12.3-5-20-4-6.2 1-12.6 2.7-19.2 7.5z"/><g class="M"><ellipse cx="180.8" cy="376.7" rx="38.6" ry="3.6"/><ellipse cx="379.4" cy="376.7" rx="38.6" ry="3.6"/></g><g class="B C D R"><path d="M461 122.5a54 54 0 0 0-.4-2"/><path stroke-dasharray="3.9929,3.9929" d="M459.7 116.6c-7-23.5-29-21.2-48.7-21.2l-352.5.7c-33.3.1-30 48-4 48 15 0 20.7 28-5.2 28.2-15.5 0-16 19.7-5.6 23.7"/><path d="M45.6 196.6c.6.1 1.3.2 2 .2"/></g><g class="N"><circle cx="46.9" cy="196.6" r="4.8"/><circle cx="461" cy="123.8" r="4.8"/><path d="M100.5 160.8c-.7 4-1.7 7.7-3 11.4a195 195 0 0 1-10 23.6c-2 4-9.8 13.3-14 15 .5-10.5.5-22.7-.7-33.3-1.2-10.2 2.5-18-1.5-27.4l-1.6-3.6c-2-4.5-4-9-4.6-14-.8-6.2 1-13.2 6.4-16.4 3.8-2.3 8.8-2.2 13-.4a24 24 0 0 1 9.9 8.8c7 10.4 8.2 23.7 6 36z"/></g><path d="M82 127c7.8 11 8.5 24 9.2 37.5s-2.6 27.2-9.3 39" class="B C D E J"/><path d="M81.5 330.8c-5.5-5-11-9.8-15-16-3.5-5.3-5.8-11.3-9-17-2-3.6-4.3-7-5.5-11s-1-8.7 2-11.7c3-3 8-3.6 12-2s7 5 9.4 8.6a41 41 0 0 1 6 15.9c.8 5 .6 10.4 1.4 15.5a52 52 0 0 0 4.4 13.7c1.8 4 6.5 11 7.7 15-3.3 1.6-11-9.2-13.2-11.3z" class="S"/><path d="M62.3 280.6c5.2 2.3 7.3 8.5 8.4 14 1.2 6.4 1 13.3 4 19 5.5 11 12.7 23.3 18 27" class="B C D E F"/><path d="M54.5 316C50 314 44 313.4 41 317.3c-2.4 3.3-1.2 8 .5 11.7 1.4 3.2 3.2 6.4 6.2 8 2 1.2 4.5 1.5 6.8 1.8l19.7 1c7.6 0 17 3 23.2 8-8-15-27.6-26-43-32z" class="G"/><path d="M46.5 325.7a71 71 0 0 1 17.2 2.3 122 122 0 0 1 31 16" class="B C D E J"/><path d="M104.2 285c-6-9.3-16-15.8-27-17.2-8-1-16.4.4-24.3-1.3-8.4-1.8-16-7-20.3-14.5s-5.5-16.5-3-24.7c2-6.2 6-12 12.3-14 3.4-1 7-1 10.5-.1 3.2.8 6 2 8.8 3.8a48 48 0 0 1 15 16.4c3.4 6 12 15 17.7 21l5.8 5.8c4 5 2 19 4.4 25z" class="O"/><path d="M40 231.2c19.4 8.7 40.5 20.2 54.2 36.4" class="B C D E F"/><path d="M96.2 265.4s-29-23.4-35-48.5a48 48 0 0 1 15 16.4c3.4 6 12 15 17.7 21l2.3 11.2zm1.3-93a195 195 0 0 1-10 23.6c-2 4-9.8 13.3-14 15a218 218 0 0 0-.7-33.3c-1.2-10.2 2.5-18-1.5-27.4l-1.6-3.6c.4.1.7.3 1 .4 6.6 2.8 9.6 9.8 10.2 16.5.5 5.6-.5 11.2-1.3 16.7-.4 2.6-.6 5.2-.1 7.7h0c.7 3 5 2.8 5.6-.2l1.8-9.3c.5-2.8 1-5.7 3.4-7.6 1-.8 2-1.2 3.2-1.2 2 .1 3 1.2 3.8 2.6z" class="I H"/><path fill="#7ee8d4" d="M96.2 259.5c-4.6-23.8-7-27.5-5-33.4 2.6-7.6 1-15.3 3.5-23a44 44 0 0 0 2.1-23.7c-.6-2.5-2-5-4.8-5.2-1.2 0-2.3.4-3.2 1.2-2.3 2-3 5-3.4 7.6l-1.7 9.3c-.6 3-5 3.2-5.6.2v-.1a22 22 0 0 1 .1-7.7c.7-5.6 1.8-11 1.3-16.7-.6-6.8-3.6-13.7-10.2-16.5-2.3-1-5-1.2-7.4-.6-7 1.8-8.6 8.5-7.6 14.2.7 4 2.6 7.7 4.3 11.5 4.2 9 1 17.4 1.7 27.4 1.6 27.6 36 55.4 36 55.4z"/><path d="M65.5 158.2c3.4 17 6.8 34 13.4 50 2 4.7 3 10.8 14 23.6" class="B C D E F"/><path d="M197.8 162.5l-21-22.8a108 108 0 0 0-26.2-16c-5.7-2.4-11.7-4.5-16.6-8.3-4.8-4-8.3-10.3-6.7-16.2 1.2-4.3 4.8-7.7 9-9.2a24 24 0 0 1 13.2-.5c12.2 2.6 22.4 11.4 29.3 21.8l.4.6a115 115 0 0 1 11.7 25.2l3 8.5c1.4 4.2 5.7 13 4 17.2z" class="N"/><path d="M142 99.6c13.3 2.5 22.7 11.4 32.6 20.6s17 21.4 20.4 34.5" class="B C D E J"/><path d="M187.6 150.5c-.1 1.4-.1 2.8.2 4.2-3.3-.8-5.6-6-7.2-11.6a87 87 0 0 1-2.5-14.1 61 61 0 0 1 1.1-17.3 115 115 0 0 1 11.7 25.2 104 104 0 0 0-2.7 9.6c-.3 1.4-.6 2.7-.7 4z" class="H I"/><path d="M210.7 102.5c-1 5-4 9.3-6.8 13.7l-4 7c-4 7.7-7 15.8-9 24.2-.6 2.8-1 5.4-.5 8.2-6.6-1.5-9.2-20-9.6-25.7-.8-10 1-20.2 5-29.4 1.8-4 4-8 7.7-10.5 3.6-2.6 8.6-3.5 12.4-1.2 2.3 1.3 3.7 3.6 4.4 6 .7 2.4.7 5 .2 7.4z" class="O"/><path d="M188 150.2c-4-10.2-1.6-32 5-45.6 2-4 4.8-8 8.7-10.3" class="B C D E F"/><path d="M210.7 102.5c-1 5-4 9.3-6.8 13.7l-4 7c-1.8-3-3-6.4-3.4-9.8-.6-5.8 1.7-12 6.4-15.5 2.2-1.6 4.8-2.5 7.5-3 .7 2.4.7 5 .2 7.4z" class="H I"/><path d="M248.6 146c-.3 2-1 3.7-1.7 5.5-3 6.3-9 11.7-18.2 16L228 155c-.4-11.4-12.8-17.7-20.7-26-4-4.2-7-9.6-7.6-15.4-.6-5.8 1.7-12 6.4-15.5 4-3 9-3.5 14-3 8 .6 15.8 4 20.7 10 .2.2.4.5.6.7 3 4 4.5 9 5.7 14a69 69 0 0 1 1.4 26.2z" class="S"/><path d="M209.6 104c8.6 4.4 17.2 9.8 22.2 18 7 11.5 5.4 26.5.1 39" class="B C D E F"/><path d="M392 219.5c5.5-9 2.7-20.6 4.6-31 1.5-8 6-15.3 12.2-20.4 4-3.2 9.6-5.4 14-3 1 .5 2 1.2 3 .7.6-.3.8-1 1-1.7 1-5.6-1.5-11.7.6-17 1.2-2.8 3.6-5 6.2-6.6a34 34 0 0 1 16.8-5.3c1.6-.1 3.2 0 4.6.7 2.5 1.3 3.7 4.4 3.4 7.3s-2 5.3-3.6 7.6c-5.7 7.5-14.2 14-15.3 23.4-.1 1.2-.1 2.4.4 3.5.5 1 1.5 1.8 2 2.8 1.8 3.3-1.6 7-5 8.5-3 1.5-6.4 2.4-9.7 2.7-2.3.2-5 .3-6.5 2-3 3.2.4 8.2-.2 12.5-.4 2.7-2.3 4.8-4.2 6.7a76 76 0 0 1-11.7 9.2c-3.4 2.2-7 4-10 6.8s-5.4 6.3-5.6 10.3" class="O"/><path d="M399.3 210.8c1-4.4 3-8.4 5-12.4 3-6.2 6.3-12.5 11-17.6 3.6-4 8-7 11.7-10.7a40 40 0 0 0 6.6-9.1c1-1.8 1.8-3.7 3-5.3 1.5-2 3.6-3.2 5.4-5 2.4-2.2 4.4-5 5.7-8" class="B C D E F"/><path d="M470.6 225.8c-1.2 4.7-3 9.4-6.2 13.2-2.2 2.6-5 4.6-7.8 6.3-1.5 1-3 1.6-4.7 2.3a57 57 0 0 1-19.8 4.4c-10 .4-20-1.8-29.5 1a29 29 0 0 0-11.6 6.8c-2 2-3.8 4.2-5.2 6.6l1.3-8.2a92 92 0 0 1 9.7-25.5 67 67 0 0 1 11.6-13.4c7-6.4 14.7-12 23.2-16.2 7-3.3 14.5-5.7 22-4.8 7.6 1 15 5.7 17.4 13a26 26 0 0 1-.4 14.5z" class="N"/><path d="M393.4 252a60 60 0 0 1 30.4-23.1c7.7-2.6 15.8-3.5 23.5-5.8s15.5-6 20-12.7" class="B C D E J"/><path d="M398.2 330.6c.4-11 6-21.2 13-29.8 5.8-7.2 12.7-13.7 21.3-17 2.7-1 5.7-1.7 8.5-1s5.3 3 5.4 6c0 2.4-1.6 4.6-3.3 6.3-5.7 5.7-13 9.3-19.8 13.4-11.8 7-23 16.6-27.7 29.6" class="O"/><path d="M402.5 321a61 61 0 0 1 38.1-32.2" class="B C D E F"/><path d="M393.7 339.4c-.1-1.8 6-6.7 7.3-8a70 70 0 0 1 25.9-14.8c3.8-1.2 8-2 11.7-1s7.3 4 7.7 8.2c.4 4-2.3 8-5.7 10s-7.4 2.2-11.3 2c-6-.3-11.7-1.8-17.6-1.8s-14.2.6-18 5.6z" class="S"/><path d="M399.8 333.8c12-6.6 30.4-10.8 43.7-9.2" class="B C D E F"/><path d="M248.6 146c-.3 2-1 3.7-1.7 5.5a96 96 0 0 1-8.9-35.2c-.2-4 .8-8 3-11.3.2.2.4.5.6.7 3 4 4.5 9 5.7 14a69 69 0 0 1 1.4 26.2z" class="H I"/><path fill="#7ee8d4" d="M290.5 145.4c9-3.2 18.4-5.8 26.7-10.7 2.5-1.5 5-3.2 6.6-5.5s2.8-5.2 2.5-8c-.4-3-2.3-5.7-1.6-8.6.4-2 1.8-3.4 3-5a16 16 0 0 0 2-13.3c-1.4-4.8-5-8.6-7-13-1.7-3.7-2.3-8-1.7-12-7.6.1-14.5 4.2-22 5.6-5.7 1-11.6.5-17.3 1.8-10.3 2.4-18.7 11.4-20.4 22a15 15 0 0 0-13.3 4.4c-3.5 3.8-5.5 9-5.2 14.3 2.3 37.4 23.8 57 23.8 57l24-28.7z"/><g class="B C D E F"><path d="M270.2 145c-1-9.2 2.3-18.4 6-27a107 107 0 0 1 13.3-23.5c5.6-7 12.7-13.2 21-16.7"/><path d="M278.3 83.7c-1 8.2-.3 18 2 26.2m1.4-3c9.4-6 24-9.7 35-9m-58 10.4c11.3 4.8 11.8 21.4 12 26M274 124a40 40 0 0 1 30.4-5.8m-7-38.8c-2.6 3.2-3.3 7-3 9.7m2.5-2.3c4-2 9.3-2.5 15-1"/></g><path d="M74.3 105c1-.1 8.3-5.4 11-7.2.8-.5 1.6-1 2-1.8s.8-1.8.4-2.6c-.5-1-1.3-2-3.4-2-3.6 0-5 1.2-6.6 3-5.8 6-3.6 10.8-3.6 10.8zm32.5 21.5c3.2 1.4 6.5 2.8 10 2.4 1.3-.2 2.8-.8 3.2-2 .4-1-.1-2.3-1-3s-2-1-3-1.4c-4.2-1-10-.5-14.3.7 0 0 3.3 2.6 5.2 3.4zM127.6 80c-1.4-1-3-2-3-3.7s1.7-3 3.4-3 3.2 1 4.5 2c5.3 4.7 4.7 10 4.7 10l-9.6-5.3zm4.2-14.4c-1.2-.5-2.5-1.2-3.2-2.3-.4-.6-.6-1.2-.3-2 .4-1 1-2 3.6-1.5 8.3 1.5 10 7 10 7s-8-.5-10-1.5zM156 78a13 13 0 0 0 8.8-4.5c.8-1 1.5-2 1.8-3.3s0-2.6-1-3.5c-1.2-1-3-.8-4.3 0s-2 2.2-2.8 3.6c-1 1.8-2.6 7.7-2.6 7.7z" class="P"/><g class="B C D E J"><path d="M97 198.8l-24-21.2c-4.3-3.8-8.6-7.6-11.3-12.6-5.8-10.8-2.5-24.8 5.4-34s19.4-15 31-19l34.6-12.2c7-3.3 14-8.3 15.7-15.8a16 16 0 0 0-2.5-13.2 16 16 0 0 0-11.8-6.4"/><path d="M161.6 70.5C159.4 77.2 151 81.3 147 87m-16-8.8c1.7 1.8 3.7 3.2 5.2 5.2 3 4 3.4 10.8-1.2 15m-47.2 17.4c7 5.4 16.4 9 25.3 9.4m-41.5.5A25 25 0 0 1 80 98.6"/></g><path d="M330 85.2c-.4-1.2-.4-2.6.5-3.5.7-.7 2-1 2.8-.6 7 3 6.3 14 6.3 14s-6.7-1-9.6-10zm0 20.5c-4.5 8.2 11.6 7.6 17.4 2.8 0 0-13.5-9.8-17.4-2.8zm20.3-20c-1-1.5-1.5-3.7-.3-5.2 1-1 2.4-1.4 3.8-1a10 10 0 0 1 4.3 2.6c5.3 6.6 2.8 13 2.8 13s-8.8-7-10.6-9.4zm64.2 20.4c-.4-1.3-.3-2.8.7-3.7.6-.6 1.5-.8 2.4-.7s1.6.4 2.4.7c1.6.8 3 2 3.7 3.7 2 4 .6 9.2.6 9.2s-9-6-9.8-9.2zm-20.2 15c-3-2.5-7.2-3.3-10.7-1.7-1 .4-1.7 1-2.3 1.7-1.3 1.8-.8 4.3.5 6s3.3 2.8 5.3 3.7c3.6 1.6 9.2 2 13 3 0 0 0-7.6-5.8-12.7z" class="P"/><g class="B C D E J"><path d="M335 87c2.4 7.8 9 13.7 16.6 16.8s15.7 4 24 4.5 16.3.8 24.2 3c7.7 2 15.3 6.4 18.6 13.6 4 8.8.5 19.3-5.2 27S400 166 394.6 174c-2.5 3.7-4.6 8-4 12.4.7 6 5.6 10.2 10.2 14M353.8 84c5.4 6 9.7 15.3 10.7 23.2"/><path d="M335.7 107a37 37 0 0 0 9.4 1.6c3.2 0 7-1.8 9.2-4m65.5 2c3 2.8 4.6 6.7 4.8 10.7s-2 9-4.7 12m-30.3-4.5l17.2 14c3 2 8.7 4.7 11.3 4"/></g><path d="M456.6 245.3c-1.5 1-3 1.6-4.7 2.3a57 57 0 0 1-19.8 4.4c-10 .4-20-1.8-29.5 1a29 29 0 0 0-11.6 6.8l-1 .5c-.8-6.7 16-15.4 21-17.7 9-4 19.4-6 29.4-5 4.4.3 9 1.2 12.5 3.7 1.6 1 3 2.5 4 4z" class="H I"/><path d="M440.2 241.4c4.4.3 9 1.2 12.5 3.7s6.2 7 5.3 11.2c-1 5-6.2 8.3-11.2 9s-10-.8-15.2-1.8a108 108 0 0 0-33.8-1.5c-2.8.3-5.5 1-8 2.3-.8-6.7 16-15.4 21-17.7 9-4 19.3-6 29.3-5z" class="O"/><g class="B C D E"><path d="M394.2 260c8.3-7.3 29.5-12.2 44.6-10.6 4.5.5 9 1.8 12.6 4.8" class="F"/><path d="M378.8 178.2l81-.2c9.5 0 17.2 7.7 17.2 17.2s-7.7 17.2-17.2 17.2l-55.3.1m-270.5 25l-56.6.1c-5.4 0-9.7 4.4-9.7 9.7s4.4 9.7 9.7 9.7H94" class="J T"/><path d="M43.7 281.4c-19.4 0-19.8 29 5 29l363.4-.7c15.3 0 17-23.8-2-23.8-37.5.1-38.8-17.8-18-18" class="R T"/></g><circle cx="43.5" cy="281.4" r="4.8" class="N"/><circle cx="396.6" cy="268.8" r="4.8" class="Q"/><path d="M406.6 351.6l-301 .6c-4 0-7.3-3.2-7.3-7.3L98 145.6c0-4 3.2-7.3 7.3-7.3l301-.6c4 0 7.3 3.2 7.3 7.3l.4 199.3c0 4-3.2 7.3-7.3 7.3z" class="H I"/><path fill="#fff" d="M400.7 347.8l-301 .6c-4 0-7.3-3.2-7.3-7.3L92 141.8c0-4 3.2-7.3 7.3-7.3l301-.6c4 0 7.3 3.2 7.3 7.3l.4 199.3c0 4-3.2 7.3-7.3 7.3z"/><path d="M399.7 134l-299.6.6c-4.4 0-8 3.6-8 8v7l315.4-7.5c0-4.4-3.6-8-8-8z" class="G"/><path d="M100.5 348.4l45.3-.1-.4-199-53.2.1.4 191.2c0 4.4 3.6 8 8 8z" class="M"/><path d="M400.3 136c3 0 5.3 2.4 5.3 5.3l.4 199.3c0 3-2.4 5.3-5.3 5.3l-301 .6c-3 0-5.3-2.4-5.3-5.3l-.4-199.3c0-1.4.5-2.7 1.5-3.7s2.3-1.5 3.7-1.6l301-.6m0-2l-301 .6c-4 0-7.3 3.3-7.3 7.3l.4 199.3c0 4 3.3 7.3 7.3 7.3l301-.6c4 0 7.3-3.3 7.3-7.3l-.4-199.3c0-4-3.3-7.3-7.3-7.3z" class="G"/><path d="M138 333.2l-35 .1c-1.5 0-2.8-1.2-2.8-2.8v-.3c0-1.5 1.2-2.8 2.8-2.8l35-.1c1.5 0 2.8 1.2 2.8 2.8v.3c0 1.5-1.2 2.8-2.8 2.8zM134 198h-29.7a5 5 0 0 1-5-5v-29.7a5 5 0 0 1 5-5l29.7-.1a5 5 0 0 1 5 5V193a5 5 0 0 1-5 5z" fill="#fff"/><g class="M"><use xlink:href="#B"/><path d="M255 169.2l-81.8.2c-2 0-3.6-1.6-3.6-3.6v-.5c0-2 1.6-3.6 3.6-3.6l81.8-.2c2 0 3.6 1.6 3.6 3.6v.5c0 2-1.6 3.6-3.6 3.6zM384.4 252h-109c-2 0-3.6-1.6-3.6-3.6v-.5c0-2 1.6-3.6 3.6-3.6l109-.2c2 0 3.6 1.6 3.6 3.6v.5c0 2-1.6 3.6-3.6 3.6z"/><use xlink:href="#B" y="16"/><use xlink:href="#B" y="32"/><path d="M382.2 329.5l-104.3.2a6 6 0 0 1-6-6V279a6 6 0 0 1 6-6l104.3-.2a6 6 0 0 1 6 6l.1 44.8a6 6 0 0 1-6 6z"/><circle cx="107" cy="141.8" r="2.5"/><circle cx="117.8" cy="141.8" r="2.5"/><circle cx="128.6" cy="141.8" r="2.5"/><circle cx="158.3" cy="165.6" r="7.4"/></g><path d="M136 204.4h-32.6c-.8 0-1.4-.6-1.4-1.4s.6-1.4 1.4-1.4H136c.8 0 1.4.6 1.4 1.4v.2c0 .8-.6 1.4-1.4 1.4zm0 6.2l-32.6.1c-.8 0-1.4-.6-1.4-1.4v-.2c0-.8.6-1.4 1.4-1.4l32.6-.1c.8 0 1.4.6 1.4 1.4v.2c0 .8-.6 1.4-1.4 1.4z" fill="#fff"/><g class="M"><path d="M173.4 223.8l-9.2.1v38.7h-8c-2.8 0-5-2.3-5-5L151 186c0-2.8 2.3-5 5-5.2h17l.1 43z"/><path d="M233.3 180.7v1a5 5 0 0 1 5 5l.1 69.7a5 5 0 0 1-5 5l-76.3.2a5 5 0 0 1-5-5L152 187a5 5 0 0 1 5-5l76.3-1.2m0 0l-76.3.2a6 6 0 0 0-6 6v69.7a6 6 0 0 0 6 6l76.3-.2a6 6 0 0 0 6-6l-.1-69.7a6 6 0 0 0-6-6zM360.6 238L259 215a6 6 0 0 1-4.5-7.2l11.4-50.6a6 6 0 0 1 7.2-4.5l101.7 23a6 6 0 0 1 4.5 7.2L368 233.5a6 6 0 0 1-7.2 4.5z"/></g><path d="M163.8 375.8h-14.2l-3.5-18h21z" class="G"/><path d="M150 357.6c0 1.5-.3 4 .7 4s.6-2.4 1.7-2.3c.7 0-.3 8 2.4 8 2 .1 1.5-3.8 1.7-6.3.1-1.7 2.3-1.4 2.3-.2v3.5c.1 2.4 3.7 1.7 3.6-1.4v-5.3H150z" class="M"/><path d="M146.6 368.6c-.3 0-.6 0-.8-.1-1-.2-1.8-.8-2.2-1.6-1.5-3 2.4-8.8 2.5-9l.2 1c0 .1-3.4 5-2 7.8.3.7 1 1 1.7 1.2.2.1.5.1.7.1 5 0 14-9.6 14-9.7.4-.4 1 0 .8.3-.4.5-9.3 10-14.8 10z" class="K"/><path d="M296 120.6a37 37 0 0 0-38.2 50.8c-.2 3 1.6 5.3 3.6 4.7s.2-6.5.2-6.5c3.4-27.2 9.7-32 20.4-31.8h25c6.2 1 17.5 5.3 19.2 27l6.2 1.2c.5-15.7-3.3-44-36.5-45.3z" class="H I"/><path d="M296 117.4a37 37 0 0 0-38.2 50.8l3.8-1.8c3.4-27.2 9.7-32 20.4-31.8h25c6.2 1 17.8 6.4 19.5 28.2h6c.5-15.7-3.3-44-36.5-45.3z" class="U"/><g class="L"><path d="M292 118l-3 6.6s.4 3.7 4 3.6 4-1.8 4-1.8l.5-7.6-5.6-1z"/><path d="M307.5 112.5c-3.4 6-5 8-9.4 8.8-5.8 1.2-12.3-2.7-9.3-12.4 2.5-8 6.2-6.6 10-6.4s12.6 3.3 8.8 10z"/></g><path d="M293.8 107.7c-1-.5-2-.1-2.8.7-.7.8-1 2-.8 3-1.4 0-2.6 1.4-2.5 2.8-1-2.2-.4-4.6-.6-6.8s.1-4.8 1.5-6.5c.6-.7 1.4-1.3 2.2-1.7 3.2-1.7 7-1.7 10.3-.1.7.3 2.3 1.4 4.6.8 4.4-1 7 2 4.3 4.7 1 .3 1.8.7 2.2 1.5.1.2.1.5 0 .7-.1.1-.3.2-.4.3-.7.3-1.6.3-2.3.2.3.3 2 .4 2.4 1.3 1.3 2.5-4 1.3-4.7 1 1 .2 3.3 2 2.5 3.4-.1.3-3.4 2-6.8-1.8-.8-1-1.8-1.8-3-2-1-.2-2 .1-2.8.4-.6.2-2.3 1.2-2.8.6-.5-.7.1-1.7-1-2.2z" class="K"/><path d="M327.3 162.8c-1 3-1.8 3.4-.7 4s2-1.2 2-1.2l5 1s-1-3.3-2-3.7-4.3 0-4.3 0zm-65.5 3.6c.7 1.6.8 1.6 1.7 3.6 1.7 3.7-2.3 9.7-5 3.2-.7-1.8-.7-5-.7-5l3.8-1.8z" class="L"/><path d="M301 99.4c3.4.2 7.7-2.2 10.3 1 .2.3.7-.1.5-.4-2.6-3.7-7.3-1-11-1-.4 0-.4.5 0 .6zm1.4-2c-2.2.4-4.4-.7-6.6-.4-2 .3-3.8 1.2-5.4 2.6-.4.3.1 1 .5.7 2-1.3 4-2.4 6.5-2.3 1.8.1 3.4.7 5.2.1.5-.1.3-.8-.2-.7zm-13.4 3.2c-1.6 1-2.7 2.4-2.8 4.4-.1 1.4-.2 4.7 1.2 5.5.3.2.7-.3.4-.5-1-1-1-3.2-1-4.3-.1-2 .8-3.5 2.3-4.6.2-.2 0-.6-.2-.4zm25.4 5.7c-.8-1.5-3-2.8-4.7-1.8-.3.1-.1.5.1.6.7 0 1.3-.1 2 .1 1 .2 1.6.7 2 1.4.2.3.6 0 .5-.3z" class="K"/><path d="M203 259c10.6 4 19.8 16 17.7 25-2.4 10-9.3 14.3-9.3 14.3l-2.2-4s5.5-8.6 5-12.7c-.8-6.5-9-11-9-11L203 259z" class="Q"/><path d="M177 371.6s-6.5 2.6-8 4h13v-4h-5zm28.5-.2s1.8 2 2.2 4.3H199c.2-1.5.8-3 1.6-4.3h5z" class="K"/><path fill="#047f76" d="M206 371.6h-6l-2.7-49.2c-.8-10.6-1.7-19-2-20.8l15.4-3.4c2 9.5-2.7 53-4.5 73.4z"/><path d="M204.7 300.7l-7.4 21.7c-.8-10.6-1.7-19-2-20.8l3.2-.7 6.3-.2z" class="H I"/><path fill="#009790" d="M184 301.2c-4.7 7.4-6 60.7-8 70.6l5.7.3s6.5-33.6 20.5-71.5l-18.3.5z"/><path d="M187.5 241.6s-3.6 14 5.5 14l-.5 3.6 7 .8-1.5-5 1.5-10.3c.2-3-8-8-11.8-3z" class="L"/><path d="M162.3 226h2.7v11.4h-2.7z" class="K"/><path d="M171.4 226H156c-1 0-2-1-2-2v-.4c0-1 1-2 2-2h15.4c1 0 2 1 2 2v.4c0 1-1 2-2 2z" class="G"/><path d="M161.6 240.3c-.1-2.6-2.2-2-1-6 .7-2.6 6 .4 5.4 2.2l-1.4 4.6-3-.8z" class="L"/><path d="M193 258.2c-13.6 1-14.5 5.5-20.6 4.8-9-1-7.4-17.8-6.3-23.8h-5.4s-9.7 38.2 21 31c-1.2 6.7 6.5 17.6-1 31 11.7 3.2 22.5 4 31.8-.1-1.6-2.2 3.3-24.4-6.4-40.4-2-3-12-2.6-13-2.5z" class="G"/><g class="U"><path d="M191.2 244.3c1 .2 2 .4 2.4 1.2.3.5.3 1 .3 1.7.2-.6.8-1 1.5-1s1.2.6 1.2 1.3c0 .3-.1.6-.2.8-.3.7-.6 1.3-1 2 1 .4 2 3.7 2.6 4.7 2-.5 6-2 6.4-8.7.2-3-.8-6.8-4-8.8a13 13 0 0 0-9-.8c-2.2.6-5.7 2.8-4 5.3.8 1.3 2.6 2 4 2.4z"/><path d="M203 240c1.3-.4 3-.2 3.6 1 .6.8.5 2 .7 3 .1.5.3 1 .6 1.3.4.4 1 .5 1.7.5 1.5.1 3-.1 4.4.1s3 1 3.3 2.4c.2.7.1 1.6.4 2.3.4 1 1.6 1.7 2.6 2.4a17 17 0 0 1 5.4 5.3c.8 1.4 1.5 2.8 1.6 4.4s1.2 3.6 1 5.2c-.3 1.7-2 4-5.2 5-5.6 1.8-7.4 2.6-12.7-.6-.6-.4-2-1.7-2.5-2.2-.5-.4-.7-1-1-1.5-.4-1.5.1-3.2 1-4.6s2-2.6 2.7-4c.5-.8 1-1.8.8-2.7 0-.4-.1-.7-.4-1-.2-.2-.6-.3-1-.4-1.2-.2-2.5 0-3.5-.5-1-.5-1.6-1.8-1.3-2.8.2-.7.8-1.3 1-2 .2-1-.4-2-1.4-2.8s-2-1-3.2-1c-.5-.1-1-.2-1.6-.5-.5-.4-.8-1-.8-1.7 0-2 1.7-3.6 3.7-4.3z"/><path d="M202 245.6c6.7 1.5-1.8 7.8 1.8 11 1 1 2.2.6 3.4.8 4.6.6 2 3.7 1.8 6.2 0 .4.6.4.6.1.4-1.7 2-3.7 1-5.5-.7-1.6-2.4-1.4-4-1.4-1.8-.1-3.8 0-3-3.6.1-.8.8-1.6 1-2.3.4-1 .6-1.7.4-2.6-.3-1.6-1.7-2.5-3.2-2.8-.2 0-.3.3-.1.3zm-14-8.2c5.2-2.6 10.4-2 14.8 1.8.3.3.7-.1.4-.4-4-4.3-10.7-5-15.4-1.6-.1.1 0 .3.1.2z"/></g><g class="L"><path d="M362.6 253.7l-2.3 4.5 5.5 2.3.6-5.2z"/><path d="M366 239c-12.5 5.4-7.4 18.6.2 17 3.7-.8 5.6-12.7 5.6-12.7L366 239z"/></g><path d="M370 237c-.4-.8-.8-1.6-1.5-2s-1.7-.7-2.4-.1c-.8.8-.3 2.2.5 3-.7.1-1.6-.4-2 .1-.4.4-.3 1 0 1.6a7 7 0 0 0 2.6 2.9c-.6.4-1.4 1-1 1.7.1.2.3.3.4.5.2.4 0 1-.2 1.3-.4.7-.8 1.3-1.3 2 .4-.6 1.5-.3 1.8.3s0 1.5-.4 2c-.3.3-.6.6-1 .6-.3.1-2 4.8-.7 5.7 1.5 1 6.4.1 7-1 .7.8 1.8 1.4 2.8 1.2s1.8-1.5 1.3-2.4a3 3 0 0 0 3.3-.9 3 3 0 0 0 .3-3.4c.6-.2.7-1 .6-1.6-.3-1.3-1.3-2.3-2.6-2.7.6 0 1-.6 1.2-1.3s-.3-1.2-.7-1.7c-1.2-1.4-2.6-1.8-4.3-2-1.8-.2-2.7-2-3.5-3.4z" class="P"/><path d="M358.4 370.8s-7.3 3.5-8.3 4.6h15.5c1-.7-2.3-4.6-2.3-4.6h-5zm27.2-4s-6.4 5-7.2 6.2l15.2-3.2c0-1-3.2-4-3.2-4l-4.8 1z" class="K"/><path fill="#d8742a" d="M365.5 303c-.3 1.5-10.3 41 18.4 64.7l8.3-2s-9.7-9-14.2-25.3c-4.3-15.4-1-17 1.7-25.4 3-9.4.7-16.2.7-16.2l-15 4.2z"/><path d="M351.8 303c-4.5 10.8-12.3 47.8 4.7 68.6h8.5s-6.7-7.3-7.4-24.3 3.6-24.4 6.6-30 6-15 6-15l-18.2 1z" class="U"/><path d="M345.8 235.6c-2.3 8-3 22.6 8.3 28.5l7.6-1.8s-13.6-7-10.7-25.2l-5-1.5z" class="Q"/><path d="M325 231.6l6-.7s-.7 24.6 27.7 26.7C380.3 259 382 300 382 300c-7 4.7-18.7 6-33.8 5 0 0 1-29-1.4-37 0 0-23.6-7.4-21.8-36.3z" class="G"/><path d="M317.8 227c-1 1 3.2 2.6 7.2 4.5l5-.6s.1-1 0-2-.6-1.7-1.2-.8-3.2 1.2-4.4.4-5.7-2.5-6.7-1.4zm28 8.6c-2-2-1.4-1.7-1.4-1.7l5.8 1.3s1.3-2.8 2.3-3-.8 2-.4 2.7-1.2 2.2-1.2 2.2l-5-1.5z" class="L"/><path d="M373.3 239.8c1.2.3 2.4.4 3.4 1.2s1.4 2.2.7 3.3c-.3.5.4 1 .8.5 1-1.2.7-2.8-.2-4-1-1.3-3-1.8-4.6-1.6-.3 0-.4.4-.1.5zm5.2 10.6c.8.5 1.4 1.2 1 2.2-.3 1-1.2 1.4-2 2-.4.2 0 .8.3.6 1-.6 2.2-1.4 2.4-2.7.1-1-.6-2-1.6-2.5-.4-.2-.7.3-.3.5zm-13 6a7 7 0 0 0 8.6-.9c.3-.3-.1-.8-.4-.6-2.4 1.8-5 2.3-8 1-.2-.1-.5.2-.2.4zm13.6-15c1.5 1.4 0 3.4-1 4.7-.2.3.1.6.4.4 1-.8 1.7-1.7 2-3 .1-1-.3-1.8-1-2.3-.1-.1-.2.1-.1.2z" class="P"/><path d="M209.7 58.8l-2.3-5.7 22.6-8.6z" class="Q"/><g class="N"><path d="M211 55.3l19-10.8L216.7 58z"/><path d="M202.2 50.8l27.8-6.3-22.6 8.6z"/></g><path d="M211 55.3l-1 3.5 3.5-2.4z" class="G"/><path d="M207 58c-6-1-14 5-10.5 11.2 1.2 2 7.2 1.2 6.8-1-.2-1-1.6-1.6-2.7-1.5-6.6.8-7 6.3-6.6 7.7 1.5 7.3 12.7 4.8 16.4 3.8" class="B C D E R T"/><defs ><path id="B" d="M261 287l-103.5.2c-2 0-3.6-1.6-3.6-3.6v-.5c0-2 1.6-3.6 3.6-3.6l103.5-.2c2 0 3.6 1.6 3.6 3.6v.5c0 2-1.6 3.6-3.6 3.6z"/></defs></svg>