<?xml version="1.0" encoding="utf-8"?>
<!-- Generator: Adobe Illustrator 16.0.0, SVG Export Plug-In . SVG Version: 6.00 Build 0)  -->
<!DOCTYPE svg PUBLIC "-//W3C//DTD SVG 1.1//EN" "http://www.w3.org/Graphics/SVG/1.1/DTD/svg11.dtd">
<svg version="1.1" xmlns="http://www.w3.org/2000/svg" xmlns:xlink="http://www.w3.org/1999/xlink" x="0px" y="0px" width="500px"
	 height="418.667px" viewBox="0 0 500 418.667" enable-background="new 0 0 500 418.667" xml:space="preserve">
<g id="BACKGROUND">
	<rect y="-37" display="none" fill="#FFFFFF" width="500" height="500"/>
	<g>
		<path fill="#ECF3FF" d="M112.412,57.738c15.62,1.045,22.155-9.612,29.494-23.311c20.092-37.502,64.838-33.888,79.848-10.795
			c10.632,16.357,33.559,12.992,52.104,6.59c18.254-6.3,49.354-12.354,74.125-4.824c21.636,6.577,30.514,30.302,50.236,28.842
			c43.025-3.184,64.716,39.293,56.924,57.818c-5.087,12.091-7.612,25.617-3.477,38.059c4.555,13.703,14.958,24.551,23.367,36.331
			c8.408,11.78,15.181,26.506,11.001,40.325c-3.577,11.825-14.247,20.007-20.871,30.464c-20.568,32.475-0.222,82.242-27.628,109.311
			c-19.618,19.375-51.603,14.902-79.053,18.601c-22.892,3.084-44.434,12.697-67.221,16.464c-46.147,7.627-92.75-9.173-139.534-9.647
			c-16.479-0.166-33.266,1.67-49.227-2.395c-21.295-5.422-39.417-21.807-46.806-42.318c-10.195-28.306-0.535-61.063-12.053-88.865
			c-9.383-22.649-32.328-41.076-30.884-65.517c0.898-15.215,11.294-27.943,18.443-41.44C41.829,131.373,27.76,52.073,112.412,57.738
			z M248.59,20.996c-4.105,0-7.434,2.55-7.434,5.695s3.337,5.424,7.434,5.695c13.35,0.882,13.35-4.515,13.35-7.66
			C261.94,19.701,252.696,20.996,248.59,20.996z M384.166,45.28c3.57,2.948,8.119,4.713,12.761,4.951
			c1.239,0.063,2.589-0.015,3.545-0.8c1.183-0.972,1.31-2.957,0.261-4.069c-0.659-0.7-1.621-1.014-2.516-1.377
			c-1.526-0.62-3.021-1.508-3.886-2.899c-0.251-0.404-0.467-0.867-0.883-1.101C390.864,38.532,379.469,41.401,384.166,45.28z
			 M406.906,50.312c1.175,0.406,2.463,0.032,3.646-0.352c0.759-0.246,1.689-0.789,1.485-1.553c-0.098-0.368-0.444-0.613-0.783-0.793
			c-1.557-0.833-3.575-1.447-5.14-0.381C404.55,48.296,405.73,49.906,406.906,50.312z M461.199,157.576
			c0.203,1.771,1.296,3.302,2.354,4.745c2.04,2.782,4.111,5.599,6.805,7.77c1.139,0.918,2.464,1.74,3.932,1.791
			c1.338,0.046,2.618-0.559,3.702-1.336c2.642-1.893,4.424-4.918,4.789-8.127c0.501-4.403-1.548-8.689-3.929-12.439
			c-1.476-2.323-3.196-4.638-5.665-5.883c-4.139-2.088-6.874-0.266-8.03,3.4C464.093,150.868,460.769,153.82,461.199,157.576z
			 M20.819,260.082c-2.18,1.92-0.214,7.539,0.43,11.248c0.193,1.112,0.45,2.262,1.153,3.15c0.96,1.215,2.555,1.713,4.051,2.146
			c2.653,0.77,5.869,1.422,7.895-0.441c1.503-1.383,1.716-3.637,1.713-5.669c-0.002-1.855-0.103-3.711-0.3-5.557
			c-0.095-0.886-0.222-1.801-0.697-2.558c-0.606-0.968-1.687-1.532-2.745-1.98C28.525,258.815,22.999,258.162,20.819,260.082z
			 M154.038,400.849c-1.29,0.259-2.829,0.815-3.016,2.105c-0.154,1.065,0.744,1.976,1.612,2.623
			c7.114,5.307,16.687,5.646,25.592,5.771c1.04,0.014,2.116,0.022,3.073-0.381c1.905-0.803,2.819-3.312,1.932-5.164
			c-0.324-0.676-0.835-1.245-1.374-1.77C174.703,397.068,162.941,399.063,154.038,400.849z M331.696,397.258
			c-8.029,5.874,0.091,11.115,10.231,7.226c5.465-2.097,10.704-4.167,16.297-5.569c1.807-0.453,12.736-2.815,12.737-5.271
			c0.004-6.507-12.313-4.971-20.061-3.886C344.656,390.631,338.316,392.414,331.696,397.258z"/>
	</g>
</g>
<g id="OBJECTS">
	<g>
		<ellipse fill="#C8DBFB" cx="180.805" cy="376.681" rx="38.647" ry="3.611"/>
		<ellipse fill="#C8DBFB" cx="379.356" cy="376.681" rx="38.647" ry="3.611"/>
		<g>
			<g>
				<g>
					<path fill="none" stroke="#C8DBFB" stroke-linecap="round" stroke-linejoin="round" d="M461.012,122.461
						c-0.109-0.673-0.229-1.329-0.357-1.968"/>
					<path fill="none" stroke="#C8DBFB" stroke-linecap="round" stroke-linejoin="round" stroke-dasharray="3.9929,3.9929" d="
						M459.702,116.612c-6.894-23.479-28.878-21.214-48.747-21.173c-21.388,0.044-352.509,0.728-352.509,0.728
						c-33.275,0.069-30.055,48.107-4,48.053c14.98-0.031,20.676,28.098-5.225,28.151c-15.539,0.032-16.036,19.729-5.589,23.675"/>
					<path fill="none" stroke="#C8DBFB" stroke-linecap="round" stroke-linejoin="round" d="M45.552,196.566
						c0.635,0.109,1.301,0.166,1.998,0.164"/>
				</g>
			</g>
			<circle fill="#5193F4" cx="46.914" cy="196.627" r="4.789"/>
			<circle fill="#5193F4" cx="461.014" cy="123.755" r="4.789"/>
		</g>
		<g>
			<g>
				<path fill="#5193F4" d="M100.45,160.84c-0.69,3.89-1.7,7.69-2.93,11.44c-2.65,8.09-6.31,15.88-10.01,23.57
					c-1.93,4.02-9.76,13.32-13.96,15.09c0.49-10.49,0.53-22.74-0.69-33.33c-1.17-10.2,2.5-17.93-1.5-27.39
					c-0.51-1.21-1.04-2.42-1.57-3.63c-1.99-4.5-3.96-9.02-4.58-13.87c-0.8-6.15,1.11-13.16,6.43-16.36
					c3.83-2.3,8.82-2.18,12.91-0.37c4.09,1.81,7.37,5.12,9.86,8.83C101.38,135.18,102.64,148.56,100.45,160.84z"/>
				<path fill="none" stroke="#0B43A4" stroke-linecap="round" stroke-linejoin="round" stroke-miterlimit="10" d="M81.85,126.866
					c7.831,11.056,8.51,23.939,9.188,37.471c0.679,13.532-2.573,27.238-9.259,39.022"/>
			</g>
			<g>
				<path fill="#00AD9F" d="M81.523,330.846c-5.488-4.851-11.041-9.774-15.096-15.873c-3.532-5.312-5.812-11.344-8.893-16.929
					c-1.994-3.614-4.348-7.096-5.503-11.059c-1.155-3.964-0.878-8.656,1.938-11.675c2.937-3.148,7.989-3.631,11.977-2.009
					c3.988,1.623,7.037,4.976,9.365,8.597c3.092,4.811,5.157,10.276,6.019,15.929c0.78,5.122,0.581,10.356,1.376,15.476
					c0.741,4.771,2.345,9.352,4.366,13.722c1.833,3.964,6.477,11.03,7.662,15.094C91.451,343.762,83.862,332.913,81.523,330.846z"/>
				<path fill="none" stroke="#00AD9F" stroke-linecap="round" stroke-linejoin="round" stroke-miterlimit="10" d="M62.334,280.55
					c5.218,2.284,7.293,8.508,8.382,14.099c1.239,6.363,0.964,13.254,3.882,19.044c5.496,10.906,12.65,23.32,17.967,27.029"/>
			</g>
			<g>
				<path fill="#0056EC" d="M54.513,315.925c-4.554-1.798-10.636-2.537-13.556,1.394c-2.445,3.291-1.179,7.956,0.51,11.691
					c1.426,3.153,3.237,6.36,6.244,8.074c2.054,1.172,4.46,1.523,6.808,1.803c6.548,0.779,13.144,1.16,19.738,1.142
					c7.643-0.021,16.901,3.1,23.225,7.866C89.367,332.81,69.841,321.979,54.513,315.925z"/>
				<path fill="none" stroke="#0B43A4" stroke-linecap="round" stroke-linejoin="round" stroke-miterlimit="10" d="M46.523,325.731
					c5.797,0.247,11.647,0.654,17.211,2.3c5.69,1.683,27.578,11.727,30.999,16.002"/>
			</g>
			<g>
				<path fill="#52D2BC" d="M104.19,284.971c-5.926-9.281-16.068-15.76-26.985-17.226c-8.06-1.083-16.354,0.425-24.309-1.253
					C44.54,264.74,37,259.355,32.635,252.007s-5.501-16.535-3.048-24.723c1.869-6.223,6.138-12.117,12.319-14.113
					c3.367-1.083,7.052-0.935,10.492-0.106c3.175,0.765,6.128,2.092,8.846,3.823c6.223,3.939,11.247,10.004,15.027,16.439
					c3.43,5.852,11.895,14.963,17.65,20.889c3.377,3.462,5.83,5.83,5.83,5.83C103.702,264.952,101.854,279.119,104.19,284.971z"/>
				<path fill="none" stroke="#00AD9F" stroke-linecap="round" stroke-linejoin="round" stroke-miterlimit="10" d="M40.109,231.161
					c19.367,8.744,40.494,20.203,54.229,36.417"/>
			</g>
			<g>
				<path opacity="0.2" fill="#5275A0" d="M96.194,265.398c0,0-28.864-23.396-34.95-48.511c6.223,3.939,11.247,10.004,15.027,16.439
					c3.43,5.852,11.895,14.963,17.65,20.889C94.601,257.359,95.355,261.044,96.194,265.398z"/>
				<path opacity="0.2" fill="#5275A0" d="M97.52,172.28c-2.65,8.09-6.31,15.88-10.01,23.57c-1.93,4.02-9.76,13.32-13.96,15.09
					c0.49-10.49,0.53-22.74-0.69-33.33c-1.17-10.2,2.5-17.93-1.5-27.39c-0.51-1.21-1.04-2.42-1.57-3.63
					c0.37,0.12,0.73,0.25,1.08,0.4c6.58,2.82,9.62,9.78,10.18,16.54c0.47,5.58-0.54,11.17-1.29,16.72
					c-0.35,2.56-0.63,5.18-0.08,7.69c0.01,0.03,0.02,0.05,0.02,0.08c0.69,2.99,5.06,2.82,5.62-0.21l1.75-9.29
					c0.52-2.78,1.09-5.69,3.37-7.63c0.9-0.77,2.06-1.25,3.24-1.21C95.56,169.75,96.74,170.85,97.52,172.28z"/>
				<path fill="#7EE8D4" d="M96.198,259.532c-4.559-23.809-6.957-27.477-4.951-33.445c2.555-7.606,1.119-15.253,3.53-22.907
					c2.411-7.653,4.052-15.883,2.107-23.667c-0.615-2.461-1.861-5.145-4.818-5.247c-1.186-0.041-2.341,0.437-3.244,1.207
					c-2.279,1.942-2.854,4.851-3.375,7.63l-1.741,9.292c-0.566,3.021-4.932,3.199-5.623,0.203c-0.006-0.025-0.012-0.05-0.017-0.075
					c-0.559-2.515-0.271-5.133,0.073-7.687c0.749-5.555,1.758-11.143,1.296-16.729c-0.559-6.759-3.601-13.72-10.185-16.533
					c-2.334-0.998-4.968-1.224-7.427-0.593c-6.872,1.764-8.65,8.479-7.643,14.214c0.709,4.035,2.603,7.746,4.315,11.468
					c4.18,9.092,1.114,17.43,1.692,27.42C61.785,231.653,96.198,259.532,96.198,259.532z"/>
				<path fill="none" stroke="#00AD9F" stroke-linecap="round" stroke-linejoin="round" stroke-miterlimit="10" d="M65.538,158.188
					c3.391,16.94,6.819,34.003,13.4,49.977c1.93,4.685,2.874,10.849,14.042,23.593"/>
			</g>
			<g>
				<path fill="#5193F4" d="M197.78,162.53c-3.51-4.01-6.75-8.09-10.16-12.02c-2.21-2.55-4.49-5.04-6.97-7.4
					c-1.23-1.18-2.5-2.32-3.84-3.43c-7.92-6.54-16.76-11.97-26.21-16.01c-5.7-2.44-11.72-4.45-16.56-8.34
					c-4.84-3.88-8.32-10.26-6.71-16.25c1.17-4.32,4.84-7.68,9.05-9.22c4.2-1.53,8.86-1.41,13.23-0.47
					c12.2,2.63,22.39,11.4,29.32,21.77c0.12,0.18,0.25,0.37,0.37,0.56c5.08,7.75,8.63,16.37,11.72,25.15
					c0.99,2.82,1.93,5.66,2.86,8.49C195.28,149.59,199.58,158.34,197.78,162.53z"/>
				<path fill="none" stroke="#0B43A4" stroke-linecap="round" stroke-linejoin="round" stroke-miterlimit="10" d="M141.973,99.573
					c13.309,2.538,22.73,11.351,32.602,20.632s17.031,21.412,20.384,34.54"/>
			</g>
			<g>
				<path opacity="0.2" fill="#5275A0" d="M187.62,150.51c-0.11,1.38-0.07,2.76,0.19,4.16c-3.33-0.76-5.64-5.93-7.16-11.56
					c-1.49-5.47-2.23-11.39-2.46-14.12c-0.45-5.76-0.08-11.6,1.11-17.27c5.08,7.75,8.63,16.37,11.72,25.15
					c-1.06,3.15-1.97,6.34-2.72,9.56C187.98,147.8,187.73,149.15,187.62,150.51z"/>
				<path fill="#52D2BC" d="M210.717,102.46c-1.125,4.991-4.142,9.303-6.796,13.678c-1.402,2.305-2.708,4.673-3.93,7.073
					c-3.908,7.678-6.892,15.834-8.856,24.224c-0.648,2.75-1.009,5.448-0.489,8.241c-6.563-1.498-9.175-20.146-9.622-25.689
					c-0.786-9.982,0.914-20.209,5.023-29.353c1.794-4.014,4.11-7.954,7.678-10.524c3.558-2.57,8.602-3.473,12.372-1.232
					c2.272,1.349,3.728,3.589,4.439,6.138C211.227,97.395,211.258,100.049,210.717,102.46z"/>
				<path fill="none" stroke="#00AD9F" stroke-linecap="round" stroke-linejoin="round" stroke-miterlimit="10" d="M188.13,150.171
					c-4.08-10.247-1.601-31.936,4.944-45.568c1.972-4.107,4.779-7.958,8.714-10.253"/>
			</g>
			<g>
				<path opacity="0.2" fill="#5275A0" d="M210.717,102.46c-1.125,4.991-4.142,9.303-6.796,13.678
					c-1.402,2.305-2.708,4.673-3.93,7.073c-1.794-3.016-3.016-6.351-3.355-9.834c-0.552-5.809,1.667-12.032,6.393-15.452
					c2.209-1.593,4.8-2.496,7.508-2.91C211.227,97.395,211.258,100.049,210.717,102.46z"/>
				<path fill="#00AD9F" d="M248.565,145.863c-0.308,1.912-0.881,3.749-1.699,5.522c-2.91,6.297-9.016,11.703-18.17,16.1
					c0,0-0.509-9.961-0.616-12.627c-0.446-11.417-12.839-17.735-20.677-26.061c-3.993-4.248-7.02-9.611-7.583-15.42
					c-0.552-5.809,1.667-12.032,6.393-15.452c3.961-2.856,9.144-3.483,14.018-3.111c7.859,0.626,15.792,3.918,20.677,10.057
					c0.212,0.234,0.393,0.478,0.573,0.722c2.995,4.089,4.535,9.069,5.661,14.029C249.097,128.213,249.978,137.155,248.565,145.863z"
					/>
				<path fill="none" stroke="#00AD9F" stroke-linecap="round" stroke-linejoin="round" stroke-miterlimit="10" d="M209.581,104.05
					c8.577,4.436,17.169,9.799,22.165,18.063c6.969,11.528,5.45,26.528,0.075,38.88"/>
			</g>
			<g>
				<path fill="#52D2BC" d="M392.063,219.515c5.467-9,2.675-20.577,4.577-30.934c1.463-7.962,5.894-15.343,12.231-20.379
					c3.979-3.161,9.566-5.418,14.061-3.049c0.974,0.514,2.132,1.235,3.069,0.659c0.56-0.345,0.784-1.038,0.916-1.682
					c1.14-5.594-1.55-11.704,0.647-16.973c1.184-2.837,3.631-4.956,6.224-6.608c4.997-3.186,10.846-5.021,16.768-5.261
					c1.572-0.064,3.208-0.003,4.615,0.702c2.541,1.274,3.703,4.438,3.362,7.261c-0.341,2.823-1.897,5.348-3.625,7.606
					c-5.741,7.507-14.154,13.985-15.263,23.371c-0.141,1.185-0.141,2.44,0.403,3.501c0.526,1.025,1.506,1.757,2.057,2.77
					c1.769,3.25-1.647,6.936-4.984,8.533c-3.047,1.459-6.354,2.374-9.717,2.689c-2.315,0.217-4.933,0.272-6.508,1.983
					c-2.907,3.158,0.433,8.207-0.177,12.455c-0.381,2.652-2.305,4.793-4.235,6.65c-3.586,3.448-7.511,6.544-11.699,9.227
					c-3.396,2.176-6.99,4.098-10.001,6.782c-3.011,2.684-5.444,6.314-5.641,10.343"/>
				<path fill="none" stroke="#00AD9F" stroke-linecap="round" stroke-linejoin="round" stroke-miterlimit="10" d="M399.268,210.761
					c0.894-4.362,2.923-8.396,4.932-12.37c3.14-6.21,6.341-12.511,11.083-17.604c3.601-3.867,7.991-6.927,11.652-10.736
					c2.61-2.715,4.835-5.801,6.582-9.138c0.947-1.809,1.767-3.71,3.045-5.302c1.518-1.891,3.593-3.238,5.398-4.856
					c2.439-2.184,4.404-4.895,5.723-7.892"/>
			</g>
			<g>
				<path fill="#5193F4" d="M470.57,225.76c-1.23,4.74-3.061,9.431-6.2,13.19c-2.17,2.59-4.87,4.64-7.82,6.31
					c-1.52,0.87-3.12,1.63-4.729,2.311c-6.261,2.63-12.99,4.12-19.771,4.38c-9.88,0.37-20.04-1.811-29.52,1.01
					c-4.351,1.29-8.36,3.64-11.65,6.75c-2.06,1.93-3.83,4.16-5.229,6.61l1.29-8.2c2.39-8.82,4.829-17.8,9.71-25.53
					c3.149-5.01,7.239-9.37,11.59-13.38c6.95-6.42,14.66-12.07,23.17-16.2c6.88-3.34,14.52-5.69,22.12-4.76
					c7.59,0.92,15.05,5.72,17.42,12.99C472.47,215.91,471.81,221.01,470.57,225.76z"/>
				<path fill="none" stroke="#0B43A4" stroke-linecap="round" stroke-linejoin="round" stroke-miterlimit="10" d="M393.4,251.877
					c7.261-10.742,18.135-18.996,30.434-23.102c7.664-2.559,15.768-3.531,23.53-5.771c7.763-2.239,15.507-6.043,20.058-12.719"/>
			</g>
			<g>
				<path fill="#52D2BC" d="M398.184,330.649c0.433-11.028,6.134-21.211,13.058-29.807c5.774-7.169,12.743-13.729,21.35-16.996
					c2.696-1.023,5.656-1.71,8.457-1.022c2.8,0.688,5.339,3.085,5.39,5.969c0.043,2.432-1.59,4.556-3.31,6.277
					c-5.658,5.667-12.972,9.303-19.825,13.445c-11.78,7.119-22.977,16.623-27.651,29.57"/>
				<path fill="none" stroke="#00AD9F" stroke-linecap="round" stroke-linejoin="round" stroke-miterlimit="10" d="M402.543,320.998
					c7.199-16.059,25.836-30.417,38.128-32.211"/>
			</g>
			<g>
				<path fill="#00AD9F" d="M393.683,339.418c-0.098-1.849,5.93-6.681,7.288-7.913c7.525-6.825,16.473-11.846,25.921-14.812
					c3.824-1.201,7.886-2.073,11.712-1.149c3.825,0.923,7.335,4.057,7.711,8.184c0.364,4.002-2.321,7.917-5.747,9.854
					s-7.433,2.229-11.253,2.007c-5.904-0.344-11.7-1.811-17.625-1.766C405.764,333.868,397.445,334.467,393.683,339.418z"/>
				<path fill="none" stroke="#00AD9F" stroke-linecap="round" stroke-linejoin="round" stroke-miterlimit="10" d="M399.822,333.806
					c12.112-6.562,30.425-10.833,43.72-9.224"/>
			</g>
			<g>
				<path opacity="0.2" fill="#5275A0" d="M248.565,145.863c-0.308,1.912-0.881,3.749-1.699,5.522
					c-4.248-9.005-7.986-20.772-8.889-35.215c-0.244-3.908,0.85-7.933,2.931-11.3c0.212,0.234,0.393,0.478,0.573,0.722
					c2.995,4.089,4.535,9.069,5.661,14.029C249.097,128.213,249.978,137.155,248.565,145.863z"/>
				<path fill="#7EE8D4" d="M290.457,145.358c9.044-3.212,18.436-5.774,26.658-10.726c2.486-1.497,4.883-3.238,6.647-5.542
					s2.849-5.243,2.455-8.118c-0.399-2.923-2.271-5.724-1.641-8.606c0.415-1.9,1.841-3.385,2.931-4.996
					c2.593-3.832,3.364-8.841,2.046-13.276c-1.418-4.765-4.988-8.577-7.021-13.114c-1.66-3.705-2.254-7.881-1.692-11.902
					c-7.586,0.102-14.511,4.246-21.971,5.629c-5.706,1.058-11.642,0.483-17.298,1.783c-10.314,2.37-18.745,11.447-20.35,21.908
					c-4.784-0.822-9.932,0.903-13.256,4.441c-3.535,3.763-5.524,9.107-5.203,14.26c2.331,37.428,23.759,56.954,23.759,56.954
					S287.009,146.583,290.457,145.358z"/>
				<g>
					<path fill="none" stroke="#00AD9F" stroke-linecap="round" stroke-linejoin="round" stroke-miterlimit="10" d="
						M270.229,145.096c-0.94-9.233,2.285-18.359,5.992-26.869c3.612-8.292,7.768-16.421,13.347-23.541
						c5.579-7.12,12.669-13.224,21.038-16.656"/>
					<path fill="none" stroke="#00AD9F" stroke-linecap="round" stroke-linejoin="round" stroke-miterlimit="10" d="M278.277,83.694
						c-0.95,8.231-0.285,18.148,1.858,26.152"/>
					<path fill="none" stroke="#00AD9F" stroke-linecap="round" stroke-linejoin="round" stroke-miterlimit="10" d="
						M281.676,106.899c9.401-6.03,23.863-9.692,35.014-9.053"/>
					<path fill="none" stroke="#00AD9F" stroke-linecap="round" stroke-linejoin="round" stroke-miterlimit="10" d="
						M258.688,108.438c11.316,4.772,11.782,21.414,12.085,26.142"/>
					<path fill="none" stroke="#00AD9F" stroke-linecap="round" stroke-linejoin="round" stroke-miterlimit="10" d="
						M273.858,123.998c8.66-6.211,21.173-8.078,30.383-5.762"/>
					<path fill="none" stroke="#00AD9F" stroke-linecap="round" stroke-linejoin="round" stroke-miterlimit="10" d="M297.483,79.421
						c-2.604,3.212-3.252,7.033-2.991,9.676"/>
					<path fill="none" stroke="#00AD9F" stroke-linecap="round" stroke-linejoin="round" stroke-miterlimit="10" d="M296.958,86.751
						c3.992-2.045,9.329-2.514,15.038-1.082"/>
				</g>
			</g>
			<g>
				<path fill="#4A49CA" d="M74.297,104.852c1.064-0.056,8.318-5.43,11.112-7.24c0.786-0.51,1.584-1.044,2.133-1.803
					c0.549-0.759,0.805-1.8,0.406-2.646c-0.496-1.051-1.319-2.101-3.395-2.097c-3.614,0.008-4.869,1.195-6.626,3.013
					C72.115,100.088,74.297,104.852,74.297,104.852z"/>
				<path fill="#4A49CA" d="M106.821,126.524c3.158,1.419,6.533,2.834,9.968,2.395c1.333-0.17,2.787-0.776,3.23-2.043
					c0.379-1.083-0.144-2.325-1.002-3.086c-0.859-0.761-1.992-1.129-3.107-1.401c-4.205-1.026-10.107-0.458-14.271,0.724
					C101.639,123.112,104.936,125.677,106.821,126.524z"/>
				<path fill="#4A49CA" d="M127.624,79.871c-1.409-0.89-2.965-2.08-2.964-3.746c0.001-1.671,1.744-2.944,3.415-2.953
					c1.671-0.008,3.222,0.903,4.478,2.005c5.315,4.666,4.652,9.986,4.652,9.986S129.193,80.861,127.624,79.871z"/>
				<path fill="#4A49CA" d="M131.814,65.638c-1.236-0.531-2.512-1.172-3.237-2.306c-0.353-0.552-0.553-1.25-0.335-1.868
					c0.364-1.034,1.012-1.962,3.617-1.49c8.25,1.497,10.047,7.146,10.047,7.146S134.005,66.58,131.814,65.638z"/>
				<path fill="#4A49CA" d="M155.985,78.135c3.31-0.285,6.727-1.934,8.813-4.519c0.788-0.976,1.508-2.052,1.771-3.278
					c0.262-1.226-0.017-2.632-0.967-3.451c-1.159-0.998-2.997-0.838-4.272,0.004c-1.276,0.842-2.096,2.216-2.76,3.593
					C157.685,72.321,155.985,78.135,155.985,78.135z"/>
				<path fill="none" stroke="#0B43A4" stroke-linecap="round" stroke-linejoin="round" stroke-miterlimit="10" d="M96.897,198.798
					c-8.013-7.063-16.025-14.126-24.038-21.19c-4.271-3.765-8.63-7.639-11.335-12.648c-5.814-10.768-2.462-24.759,5.39-34.145
					s19.353-14.929,30.906-18.962c11.554-4.034,23.58-6.864,34.593-12.198c6.907-3.346,13.852-8.33,15.746-15.767
					c1.14-4.474,0.182-9.436-2.541-13.164c-2.723-3.728-7.159-6.149-11.767-6.424"/>
				<path fill="none" stroke="#0B43A4" stroke-linecap="round" stroke-linejoin="round" stroke-miterlimit="10" d="M161.583,70.454
					c-2.189,6.723-10.717,10.813-14.609,16.637"/>
				<path fill="none" stroke="#0B43A4" stroke-linecap="round" stroke-linejoin="round" stroke-miterlimit="10" d="M130.964,78.187
					c1.679,1.773,3.69,3.239,5.156,5.192c3.096,4.128,3.354,10.836-1.226,14.997"/>
				<path fill="none" stroke="#0B43A4" stroke-linecap="round" stroke-linejoin="round" stroke-miterlimit="10" d="M87.816,115.824
					c7.069,5.447,16.362,9.078,25.279,9.424"/>
				<path fill="none" stroke="#0B43A4" stroke-linecap="round" stroke-linejoin="round" stroke-miterlimit="10" d="M71.633,125.746
					c-3.255-9.598,0.292-21.096,8.388-27.193"/>
			</g>
			<g>
				<path fill="#4A49CA" d="M330.047,85.191c-0.384-1.188-0.364-2.647,0.514-3.535c0.696-0.704,1.864-1.019,2.771-0.621
					c7.029,3.091,6.269,14.058,6.269,14.058S332.933,94.13,330.047,85.191z"/>
				<path fill="#4A49CA" d="M329.876,105.733c-4.547,8.218,11.615,7.591,17.443,2.751
					C347.319,108.484,333.791,98.659,329.876,105.733z"/>
				<path fill="#4A49CA" d="M350.311,85.814c-1.097-1.504-1.486-3.744-0.292-5.172c0.89-1.063,2.439-1.391,3.801-1.129
					s3.401,1.522,4.271,2.603c5.318,6.617,2.818,13.092,2.818,13.092S352.108,88.277,350.311,85.814z"/>
				<path fill="#4A49CA" d="M414.495,106.163c-0.393-1.28-0.301-2.842,0.694-3.738c0.628-0.566,1.521-0.771,2.364-0.707
					c0.844,0.063,1.648,0.37,2.418,0.722c1.648,0.754,2.931,2.07,3.722,3.7c1.999,4.118,0.642,9.214,0.642,9.214
					S415.474,109.353,414.495,106.163z"/>
				<path fill="#4A49CA" d="M394.305,121.244c-2.856-2.51-7.233-3.252-10.716-1.725c-0.886,0.388-1.727,0.937-2.293,1.72
					c-1.276,1.766-0.829,4.347,0.496,6.077c1.324,1.73,3.333,2.782,5.317,3.683c3.597,1.632,9.179,1.959,13.007,2.936
					C400.116,133.935,400.101,126.334,394.305,121.244z"/>
				<path fill="none" stroke="#0B43A4" stroke-linecap="round" stroke-linejoin="round" stroke-miterlimit="10" d="M335.084,86.954
					c2.378,7.783,9.107,13.656,16.6,16.833c7.492,3.177,15.745,4.015,23.866,4.541c8.121,0.525,16.339,0.787,24.192,2.919
					c7.654,2.078,15.276,6.405,18.562,13.624c3.997,8.786,0.457,19.293-5.155,27.146c-5.613,7.853-13.172,14.183-18.602,22.164
					c-2.494,3.665-4.576,7.955-4.072,12.359c0.672,5.871,5.618,10.194,10.215,13.908"/>
				<path fill="none" stroke="#0B43A4" stroke-linecap="round" stroke-linejoin="round" stroke-miterlimit="10" d="M353.804,84.099
					c5.382,5.954,9.684,15.265,10.73,23.222"/>
				<path fill="none" stroke="#0B43A4" stroke-linecap="round" stroke-linejoin="round" stroke-miterlimit="10" d="M335.707,107.095
					c3.077,0.817,6.195,1.639,9.379,1.647s6.872-1.755,9.161-3.968"/>
				<path fill="none" stroke="#0B43A4" stroke-linecap="round" stroke-linejoin="round" stroke-miterlimit="10" d="M419.761,106.646
					c2.883,2.784,4.636,6.707,4.785,10.712c0.15,4.005-2.072,8.859-4.738,11.851"/>
				<path fill="none" stroke="#0B43A4" stroke-linecap="round" stroke-linejoin="round" stroke-miterlimit="10" d="M389.596,124.823
					c5.758,5.301,10.771,9.587,17.173,14.09c2.922,2.055,8.724,4.689,11.299,4.011"/>
			</g>
			<g>
				<path opacity="0.2" fill="#5275A0" d="M456.55,245.26c-1.52,0.87-3.12,1.63-4.729,2.311c-6.261,2.63-12.99,4.12-19.771,4.38
					c-9.88,0.37-20.04-1.811-29.52,1.01c-4.351,1.29-8.36,3.64-11.65,6.75c-0.33,0.16-0.66,0.34-0.99,0.53
					c-0.79-6.69,15.891-15.41,20.96-17.681c9.15-4.1,19.351-5.92,29.351-5.119c4.38,0.35,8.87,1.21,12.479,3.699
					C454.23,242.21,455.59,243.64,456.55,245.26z"/>
				<path fill="#52D2BC" d="M440.199,241.438c4.378,0.349,8.867,1.208,12.483,3.7c3.616,2.491,6.159,6.94,5.315,11.25
					c-0.981,5.02-6.172,8.285-11.249,8.902s-10.15-0.779-15.16-1.811c-11.086-2.283-22.531-2.806-33.779-1.545
					c-2.805,0.315-5.467,0.871-7.924,2.307c-0.789-6.694,15.898-15.41,20.969-17.683C420.002,242.461,430.2,240.642,440.199,241.438
					z"/>
				<path fill="none" stroke="#00AD9F" stroke-linecap="round" stroke-linejoin="round" stroke-miterlimit="10" d="M394.228,260.022
					c8.284-7.281,29.548-12.224,44.586-10.631c4.53,0.479,9.1,1.832,12.582,4.77"/>
			</g>
		</g>
		
			<path fill="none" stroke="#0B43A4" stroke-linecap="round" stroke-linejoin="round" stroke-miterlimit="10" stroke-dasharray="4" d="
			M378.754,178.223l80.886-0.167c9.491-0.02,17.202,7.659,17.222,17.151l0,0c0.02,9.492-7.659,17.203-17.151,17.222l-55.328,0.114"
			/>
		
			<path fill="none" stroke="#0B43A4" stroke-linecap="round" stroke-linejoin="round" stroke-miterlimit="10" stroke-dasharray="4" d="
			M134.01,237.613l-56.567,0.116c-5.357,0.012-9.692,4.363-9.681,9.721l0,0c0.011,5.358,4.363,9.692,9.721,9.681l16.493-0.033"/>
		<g>
			
				<path fill="none" stroke="#C8DBFB" stroke-linecap="round" stroke-linejoin="round" stroke-miterlimit="10" stroke-dasharray="4" d="
				M43.723,281.42c-19.378,0.04-19.783,28.945,4.875,28.895c24.658-0.051,348.128-0.719,363.382-0.75
				c15.253-0.032,16.863-23.829-1.994-23.791c-37.525,0.078-38.771-17.819-17.937-17.862"/>
			<circle fill="#5193F4" cx="43.537" cy="281.42" r="4.789"/>
			<circle fill="#0B43A4" cx="396.62" cy="268.845" r="4.789"/>
		</g>
		<g>
			<path opacity="0.2" fill="#5275A0" d="M406.558,351.612l-300.889,0.621c-4.015,0.009-7.275-3.239-7.284-7.254l-0.412-199.333
				c-0.008-4.014,3.239-7.275,7.254-7.284l300.889-0.621c4.014-0.008,7.275,3.239,7.283,7.254l0.411,199.333
				C413.819,348.343,410.571,351.604,406.558,351.612z"/>
			<g>
				<path fill="#FFFFFF" d="M400.665,347.804l-300.889,0.621c-4.015,0.008-7.275-3.239-7.284-7.254l-0.412-199.333
					c-0.008-4.014,3.239-7.275,7.254-7.284l300.889-0.621c4.015-0.008,7.275,3.239,7.284,7.253l0.411,199.333
					C407.927,344.534,404.68,347.795,400.665,347.804z"/>
				<path fill="#0056EC" d="M399.734,133.936l-299.602,0.618c-4.37,0.009-7.905,3.559-7.896,7.929l0.014,6.88l315.427-0.651
					l-0.015-6.88C407.654,137.462,404.104,133.927,399.734,133.936z"/>
				<path fill="#C8DBFB" d="M100.493,348.425l45.268-0.094l-0.411-199.078l-53.18,0.109l0.394,191.175
					C92.574,344.902,96.124,348.434,100.493,348.425z"/>
				<g>
					<path fill="#0056EC" d="M400.313,135.935c2.898,0,5.262,2.359,5.268,5.258l0.411,199.333c0.006,2.905-2.353,5.273-5.258,5.279
						l-300.9,0.621c-2.899,0-5.263-2.358-5.269-5.258l-0.411-199.333c-0.003-1.407,0.542-2.731,1.535-3.729
						c0.993-0.997,2.315-1.548,3.723-1.551l300.884-0.621H400.313 M400.313,133.935c-0.005,0-0.011,0-0.016,0l-300.889,0.621
						c-4.014,0.008-7.262,3.27-7.253,7.284l0.411,199.333c0.008,4.01,3.261,7.254,7.269,7.254c0.005,0,0.01,0,0.015,0l300.889-0.621
						c4.015-0.008,7.263-3.269,7.254-7.283l-0.411-199.333C407.572,137.179,404.32,133.935,400.313,133.935L400.313,133.935z"/>
				</g>
				<path fill="#FFFFFF" d="M138.126,333.207l-34.886,0.072c-1.539,0.003-2.79-1.242-2.792-2.781l-0.001-0.345
					c-0.003-1.539,1.242-2.79,2.781-2.793l34.886-0.072c1.539-0.003,2.789,1.242,2.792,2.781l0,0.346
					C140.911,331.954,139.666,333.204,138.126,333.207z"/>
				<path fill="#FFFFFF" d="M133.932,198.149l-29.701,0.062c-2.82,0.006-5.111-2.276-5.117-5.096l-0.062-29.701
					c-0.006-2.82,2.276-5.111,5.096-5.117l29.701-0.062c2.82-0.006,5.111,2.276,5.117,5.096l0.062,29.701
					C139.033,195.853,136.751,198.143,133.932,198.149z"/>
				<path fill="#C8DBFB" d="M261.082,287.12l-103.479,0.214c-2.01,0.004-3.644-1.622-3.647-3.633l-0.001-0.451
					c-0.004-2.01,1.622-3.643,3.632-3.647l103.478-0.213c2.011-0.005,3.644,1.622,3.647,3.632l0.001,0.451
					C264.718,285.483,263.092,287.116,261.082,287.12z"/>
				<path fill="#C8DBFB" d="M255.102,169.222l-81.775,0.168c-2.01,0.004-3.643-1.622-3.647-3.632l-0.001-0.451
					c-0.004-2.01,1.622-3.643,3.632-3.647l81.775-0.168c2.01-0.004,3.643,1.622,3.647,3.632l0.001,0.451
					C258.738,167.584,257.112,169.217,255.102,169.222z"/>
				<path fill="#C8DBFB" d="M384.37,251.923l-109.029,0.225c-2.01,0.004-3.643-1.622-3.647-3.633l-0.001-0.451
					c-0.004-2.01,1.622-3.643,3.633-3.647l109.028-0.225c2.011-0.004,3.644,1.622,3.647,3.633l0.001,0.451
					C388.007,250.285,386.38,251.918,384.37,251.923z"/>
				<path fill="#C8DBFB" d="M261.114,303.104l-103.478,0.213c-2.01,0.005-3.643-1.622-3.647-3.632l-0.001-0.451
					c-0.004-2.011,1.622-3.644,3.632-3.647l103.479-0.214c2.011-0.004,3.644,1.622,3.647,3.633l0.001,0.451
					C264.751,301.466,263.125,303.1,261.114,303.104z"/>
				<path fill="#C8DBFB" d="M261.147,319.086L157.669,319.3c-2.01,0.004-3.644-1.622-3.647-3.632l-0.001-0.451
					c-0.004-2.011,1.622-3.644,3.632-3.647l103.479-0.214c2.01-0.004,3.644,1.622,3.647,3.633l0.001,0.451
					C264.784,317.449,263.158,319.082,261.147,319.086z"/>
				<path fill="#C8DBFB" d="M382.158,329.511l-104.285,0.215c-3.32,0.007-6.018-2.679-6.024-5.999l-0.092-44.789
					c-0.007-3.32,2.679-6.018,5.999-6.024l104.285-0.215c3.32-0.007,6.018,2.679,6.024,5.999l0.092,44.789
					C388.164,326.807,385.479,329.504,382.158,329.511z"/>
				<circle fill="#C8DBFB" cx="106.989" cy="141.806" r="2.549"/>
				<circle fill="#C8DBFB" cx="117.78" cy="141.784" r="2.549"/>
				<circle fill="#C8DBFB" cx="128.572" cy="141.761" r="2.549"/>
				<circle fill="#C8DBFB" cx="158.346" cy="165.556" r="7.371"/>
				<path fill="#FFFFFF" d="M136.002,204.378l-32.647,0.067c-0.759,0.001-1.375-0.612-1.376-1.371l0-0.17
					c-0.001-0.758,0.612-1.375,1.371-1.376l32.648-0.067c0.759-0.002,1.375,0.612,1.376,1.371l0,0.17
					C137.375,203.761,136.761,204.377,136.002,204.378z"/>
				<path fill="#FFFFFF" d="M136.015,210.612l-32.648,0.067c-0.759,0.001-1.375-0.612-1.376-1.371v-0.17
					c-0.002-0.759,0.612-1.375,1.371-1.376l32.647-0.067c0.759-0.001,1.375,0.612,1.376,1.371l0,0.17
					C137.387,209.994,136.773,210.61,136.015,210.612z"/>
				<path fill="#C8DBFB" d="M173.397,223.793l-9.233,0.094l0.068,38.679l-7.967,0.016c-2.811,0.006-5.095-2.268-5.101-5.079
					l-0.147-71.526c-0.006-2.841,2.292-5.149,5.133-5.154l17.146-0.044L173.397,223.793z"/>
				<g>
					<path fill="#C8DBFB" d="M233.288,180.662v1c2.757,0,5.005,2.243,5.011,5.001l0.144,69.737c0.006,2.764-2.238,5.016-5.001,5.021
						l-76.267,0.157c-2.757,0-5.005-2.243-5.011-5.001l-0.144-69.737c-0.006-2.764,2.238-5.016,5.001-5.022l76.257-0.157
						L233.288,180.662 M233.287,180.662c-0.004,0-0.009,0-0.013,0l-76.256,0.157c-3.32,0.007-6.006,2.704-5.999,6.024l0.144,69.737
						c0.007,3.316,2.697,5.999,6.011,5.999c0.004,0,0.009,0,0.013,0l76.256-0.157c3.32-0.007,6.006-2.703,5.999-6.023l-0.144-69.737
						C239.292,183.345,236.602,180.662,233.287,180.662L233.287,180.662z"/>
				</g>
			</g>
			<path fill="#C8DBFB" d="M360.628,238.061l-101.721-22.989c-3.238-0.731-5.271-3.95-4.538-7.189l11.442-50.628
				c0.731-3.238,3.95-5.271,7.188-4.539l101.721,22.989c3.238,0.732,5.27,3.951,4.538,7.189l-11.442,50.629
				C367.085,236.761,363.866,238.793,360.628,238.061z"/>
			<g>
				<polygon fill="#0056EC" points="163.763,375.761 149.53,375.79 146.047,357.657 167.171,357.613 				"/>
				<path fill="#C8DBFB" d="M149.987,357.648c0.003,1.479-0.279,3.964,0.706,4c0.985,0.037,0.578-2.357,1.7-2.293
					c0.717,0.041-0.334,7.879,2.376,8.067c1.863,0.129,1.522-3.844,1.713-6.331c0.13-1.683,2.285-1.353,2.302-0.239
					c0.02,1.245-0.06,2.079,0,3.496c0.101,2.366,3.739,1.738,3.609-1.424c-0.129-3.163-0.008-5.302-0.008-5.302L149.987,357.648z"/>
				<g>
					<path fill="#0C2340" d="M146.58,368.601c-0.291,0.001-0.571-0.026-0.841-0.087c-1.048-0.231-1.784-0.782-2.188-1.639
						c-1.451-3.076,2.37-8.841,2.519-9.097l0.199,1.037c-0.035,0.061-3.356,5.015-2.051,7.779c0.31,0.657,0.862,1.065,1.687,1.248
						c0.228,0.05,0.467,0.074,0.714,0.073c5.126-0.009,13.889-9.564,13.985-9.674c0.358-0.431,1.028-0.025,0.79,0.338
						C160.994,359.04,152.09,368.589,146.58,368.601z"/>
				</g>
			</g>
			<g>
				<path opacity="0.2" fill="#5275A0" d="M296.146,120.624c-20.229-0.774-48.077,14.187-38.198,50.765
					c-0.215,3.093,1.638,5.299,3.607,4.695s0.233-6.465,0.233-6.465c3.368-27.196,9.668-31.901,20.363-31.803l25.09-0.052
					c6.2,0.914,17.473,5.25,19.164,27.021l6.246,1.154C333.139,150.213,329.332,121.893,296.146,120.624z"/>
				<path fill="#EF832B" d="M296.146,117.438c-20.229-0.774-48.077,14.187-38.198,50.765l3.841-1.77
					c3.368-27.196,9.668-31.901,20.363-31.803l25.09-0.052c6.2,0.914,17.774,6.417,19.465,28.188l5.945-0.013
					C333.139,147.027,329.332,118.707,296.146,117.438z"/>
				<path fill="#FFB9A3" d="M292.009,118.033l-3.004,6.604c0,0,0.358,3.719,4.008,3.642s4.138-1.763,4.138-1.763l0.476-7.582
					L292.009,118.033z"/>
				<path fill="#FFB9A3" d="M307.453,112.526c-3.425,6.055-4.942,7.939-9.421,8.849c-5.8,1.179-12.303-2.732-9.28-12.373
					c2.465-7.861,6.196-6.65,9.851-6.353S311.153,105.984,307.453,112.526z"/>
				<path fill="#0C2340" d="M293.839,107.749c-0.91-0.474-2.081-0.071-2.787,0.673c-0.727,0.765-1.078,1.911-0.769,2.919
					c-1.402,0.021-2.633,1.395-2.499,2.791c-0.958-2.235-0.439-4.559-0.629-6.846s0.061-4.773,1.543-6.524
					c0.607-0.718,1.391-1.271,2.222-1.712c3.154-1.676,7.117-1.732,10.318-0.146c0.663,0.329,2.324,1.375,4.643,0.814
					c4.418-1.068,7.004,1.919,4.349,4.719c0.853,0.308,1.787,0.688,2.174,1.508c0.099,0.209,0.15,0.472,0.019,0.663
					c-0.093,0.133-0.252,0.199-0.405,0.251c-0.744,0.251-1.551,0.315-2.325,0.185c0.298,0.253,1.938,0.352,2.432,1.306
					c1.317,2.539-3.902,1.257-4.697,1.002c0.908,0.171,3.292,2.073,2.529,3.378c-0.15,0.258-3.369,2.133-6.752-1.796
					c-0.787-0.914-1.769-1.758-2.934-2.068c-0.914-0.244-1.871,0.094-2.757,0.427c-0.646,0.243-2.296,1.247-2.769,0.649
					C294.224,109.285,294.894,108.273,293.839,107.749z"/>
				<path fill="#FFB9A3" d="M327.348,162.771c-0.896,3.086-1.804,3.393-0.717,3.884c1.088,0.492,1.967-1.238,1.967-1.238
					l5.018,0.998c0,0-1.132-3.259-1.923-3.653S327.348,162.771,327.348,162.771z"/>
				<path fill="#FFB9A3" d="M261.789,166.433c0.655,1.628,0.836,1.639,1.749,3.596c1.746,3.74-2.343,9.655-4.882,3.197
					c-0.695-1.77-0.708-5.023-0.708-5.023L261.789,166.433z"/>
			</g>
			<g>
				<g>
					<path fill="#0C2340" d="M300.984,99.43c3.43,0.187,7.65-2.236,10.337,0.875c0.248,0.288,0.745-0.094,0.527-0.407
						c-2.571-3.694-7.331-0.944-10.864-1.038C300.615,98.85,300.619,99.41,300.984,99.43L300.984,99.43z"/>
					<path fill="#0C2340" d="M302.361,97.538c-2.245,0.39-4.373-0.721-6.596-0.381c-2.067,0.315-3.84,1.217-5.412,2.585
						c-0.372,0.324,0.115,0.951,0.525,0.681c2.046-1.346,3.938-2.434,6.481-2.294c1.84,0.101,3.37,0.679,5.2,0.133
						C303.031,98.121,302.83,97.457,302.361,97.538L302.361,97.538z"/>
					<path fill="#0C2340" d="M289.022,100.738c-1.608,0.999-2.681,2.411-2.798,4.373c-0.085,1.446-0.222,4.653,1.249,5.473
						c0.346,0.192,0.702-0.262,0.422-0.546c-0.899-0.912-0.891-3.182-0.944-4.32c-0.088-1.906,0.832-3.469,2.308-4.576
						C289.494,100.966,289.285,100.574,289.022,100.738L289.022,100.738z"/>
					<path fill="#0C2340" d="M314.393,106.369c-0.848-1.471-3.02-2.773-4.688-1.839c-0.264,0.147-0.14,0.548,0.149,0.553
						c0.689,0.013,1.319-0.068,2,0.103c0.853,0.214,1.584,0.734,2.088,1.447C314.133,106.904,314.564,106.666,314.393,106.369
						L314.393,106.369z"/>
				</g>
			</g>
			<g>
				<path fill="#0B43A4" d="M203.116,258.917c10.605,3.896,19.816,16.064,17.703,24.908c-2.387,9.989-9.279,14.298-9.279,14.298
					l-2.171-4.011c0,0,5.509-8.614,5.031-12.682c-0.766-6.515-8.993-10.865-8.993-10.865L203.116,258.917z"/>
				<path fill="#0C2340" d="M177.005,371.64c0,0-6.514,2.631-8.142,4.115l12.902-0.025l-0.009-4.1L177.005,371.64z"/>
				<path fill="#0C2340" d="M205.514,371.389c0,0,1.849,2.144,2.189,4.29l-8.803,0.018c0.151-1.485,0.784-2.906,1.641-4.298
					L205.514,371.389z"/>
				<path fill="#047F76" d="M206.05,371.58l-6.01,0.01c0.12-7.08-1.34-31.21-2.75-49.25c-0.83-10.58-1.65-19.08-2.13-20.8l3.22-0.71
					l12.15-2.7C212.61,307.63,207.81,351.25,206.05,371.58z"/>
				<path fill="#009790" d="M183.961,301.159c-4.688,7.385-5.9,60.743-7.862,70.633l5.7,0.323c0,0,6.546-33.642,20.489-71.46
					L183.961,301.159z"/>
				<path opacity="0.2" fill="#5275A0" d="M204.69,300.65c-2.75,7.47-5.22,14.779-7.4,21.689c-0.83-10.58-1.65-19.08-2.13-20.8
					l3.22-0.71L204.69,300.65z"/>
				<path fill="#009790" d="M183.961,301.159c-4.688,7.385-5.9,60.743-7.862,70.633l5.7,0.323c0,0,6.546-33.642,20.489-71.46
					L183.961,301.159z"/>
				<path fill="#FFB9A3" d="M187.543,241.591c0,0-3.649,13.905,5.466,13.888l-0.541,3.553l6.922,0.757l-1.496-4.951
					c0,0,1.369-8.743,1.46-10.321C199.527,241.567,191.266,236.372,187.543,241.591z"/>
				<g>
					<rect x="162.328" y="226.005" fill="#0C2340" width="2.686" height="11.35"/>
					<path fill="#0056EC" d="M171.369,225.99l-15.422,0.03c-1.079,0.003-1.956-0.87-1.958-1.949l-0.001-0.404
						c-0.002-1.079,0.871-1.956,1.95-1.958l15.421-0.03c1.079-0.002,1.956,0.871,1.958,1.95l0.001,0.403
						C173.321,225.111,172.448,225.988,171.369,225.99z"/>
				</g>
				<path fill="#FFB9A3" d="M161.591,240.317c-0.073-2.574-2.196-1.9-1.026-6.1c0.724-2.598,6.086,0.416,5.418,2.218
					c-0.667,1.801-1.437,4.648-1.437,4.648L161.591,240.317z"/>
				<path fill="#0056EC" d="M193.075,258.213c-13.63,0.902-14.527,5.496-20.627,4.777c-9.028-1.063-7.448-17.829-6.333-23.842
					l-5.392,0.01c0,0-9.72,38.193,20.98,31.132c-1.179,6.69,6.455,17.615-0.947,30.876c11.654,3.165,22.528,3.941,31.839-0.063
					c-1.63-2.195,3.342-24.387-6.394-40.361C204.301,257.623,194.072,258.146,193.075,258.213z"/>
				<path fill="#0056EC" d="M193.075,258.213c-13.63,0.902-14.527,5.496-20.627,4.777c-9.028-1.063-7.448-17.829-6.333-23.842
					l-5.392,0.01c0,0-9.72,38.193,20.98,31.132c-1.179,6.69,6.455,17.615-0.947,30.876c11.654,3.165,22.528,3.941,31.839-0.063
					c-1.63-2.195,3.342-24.387-6.394-40.361C204.301,257.623,194.072,258.146,193.075,258.213z"/>
				<path fill="#EF832B" d="M191.197,244.256c0.889,0.227,1.923,0.397,2.398,1.152c0.308,0.49,0.287,1.1,0.256,1.671
					c0.164-0.598,0.825-1.028,1.464-0.955c0.64,0.074,1.176,0.644,1.188,1.261c0.005,0.29-0.091,0.572-0.198,0.844
					c-0.266,0.675-0.606,1.323-1.014,1.93c1.115,0.409,2.046,3.666,2.604,4.679c1.873-0.469,6.038-2.078,6.401-8.71
					c0.169-3.089-0.772-6.787-4.123-8.845c-2.367-1.452-6.294-1.473-9.004-0.78c-2.197,0.562-5.702,2.755-4.068,5.32
					C187.926,243.117,189.729,243.881,191.197,244.256z"/>
				<path fill="#EF832B" d="M202.872,240.033c1.269-0.422,2.878-0.198,3.64,0.861c0.594,0.827,0.541,1.912,0.733,2.899
					c0.092,0.476,0.261,0.962,0.631,1.29c0.441,0.393,1.082,0.486,1.683,0.519c1.467,0.078,2.953-0.107,4.399,0.138
					c1.447,0.246,2.926,1.063,3.338,2.415c0.228,0.747,0.104,1.569,0.376,2.303c0.41,1.101,1.583,1.727,2.603,2.366
					c2.172,1.36,4.017,3.197,5.354,5.328c0.846,1.35,1.498,2.849,1.601,4.42c0.102,1.571,1.235,3.646,0.934,5.194
					c-0.326,1.669-1.967,3.926-5.209,4.97c-5.604,1.803-7.378,2.584-12.747-0.606c-0.647-0.385-1.912-1.694-2.498-2.162
					c-0.459-0.367-0.75-0.898-0.911-1.451c-0.448-1.541,0.07-3.201,0.874-4.603c0.805-1.401,1.889-2.641,2.708-4.034
					c0.492-0.839,0.894-1.769,0.848-2.729c-0.017-0.358-0.108-0.734-0.369-0.992c-0.226-0.224-0.55-0.329-0.869-0.392
					c-1.179-0.23-2.475,0.014-3.544-0.516c-1.039-0.516-1.608-1.771-1.293-2.85c0.21-0.722,0.757-1.329,0.913-2.063
					c0.224-1.055-0.438-2.141-1.357-2.759s-2.053-0.857-3.16-1.04c-0.545-0.09-1.117-0.179-1.56-0.497
					c-0.547-0.392-0.798-1.079-0.791-1.734C199.222,242.235,200.911,240.687,202.872,240.033z"/>
			</g>
			<g>
				<g>
					<path fill="#EF832B" d="M201.867,245.622c6.743,1.46-1.768,7.849,1.796,10.907c1.016,0.872,2.201,0.597,3.392,0.762
						c4.578,0.633,2.075,3.742,1.763,6.179c-0.047,0.367,0.563,0.443,0.645,0.087c0.388-1.684,1.935-3.739,1.137-5.531
						c-0.702-1.577-2.442-1.393-3.868-1.436c-1.787-0.054-3.759,0.003-3.09-3.555c0.149-0.791,0.782-1.594,1.089-2.338
						c0.354-0.858,0.591-1.71,0.398-2.648c-0.328-1.587-1.652-2.52-3.167-2.773C201.739,245.238,201.638,245.572,201.867,245.622
						L201.867,245.622z"/>
				</g>
			</g>
			<g>
				<g>
					<path fill="#EF832B" d="M187.972,237.369c5.2-2.64,10.383-2.113,14.773,1.759c0.298,0.263,0.701-0.139,0.437-0.437
						c-3.853-4.336-10.705-5.104-15.352-1.565C187.688,237.233,187.806,237.453,187.972,237.369L187.972,237.369z"/>
				</g>
			</g>
			<g>
				<polygon fill="#FFB9A3" points="362.634,253.681 360.38,258.212 365.888,260.464 366.476,255.247 				"/>
				<path fill="#FFB9A3" d="M365.959,238.93c-12.492,5.438-7.374,18.616,0.23,17.068c3.7-0.753,5.574-12.67,5.574-12.67
					L365.959,238.93z"/>
				<path fill="#4A49CA" d="M370.108,237.055c-0.411-0.765-0.8-1.579-1.477-2.123s-1.749-0.716-2.385-0.125
					c-0.84,0.781-0.349,2.244,0.503,3.014c-0.732,0.089-1.603-0.417-2.143,0.086c-0.409,0.382-0.267,1.058-0.032,1.565
					c0.551,1.195,1.451,2.227,2.56,2.935c-0.634,0.36-1.368,1.056-0.988,1.678c0.105,0.172,0.282,0.291,0.386,0.464
					c0.242,0.404,0.008,0.917-0.235,1.319c-0.395,0.65-0.819,1.282-1.273,1.892c0.429-0.589,1.476-0.347,1.79,0.311
					s0.041,1.47-0.445,2.012c-0.27,0.302-0.613,0.553-1.008,0.644c-0.344,0.08-1.856,4.76-0.676,5.677
					c1.459,1.133,6.424,0.149,7.142-1.131c0.718,0.779,1.77,1.369,2.81,1.162c1.039-0.206,1.832-1.488,1.271-2.387
					c1.123,0.414,2.489,0.049,3.256-0.87c0.767-0.92,0.879-2.33,0.269-3.36c0.612-0.185,0.735-1.013,0.579-1.633
					c-0.316-1.255-1.339-2.306-2.585-2.656c0.633,0.011,1.135-0.626,1.165-1.258s-0.299-1.228-0.697-1.719
					c-1.174-1.446-2.562-1.833-4.294-2.052C371.848,240.277,370.883,238.494,370.108,237.055z"/>
				<path fill="#0C2340" d="M358.402,370.772c0,0-7.309,3.51-8.29,4.604c0,0,14.381,0.647,15.507-0.032
					c1.125-0.679-2.303-4.581-2.303-4.581L358.402,370.772z"/>
				<path fill="#0C2340" d="M385.593,366.805c0,0-6.425,4.946-7.157,6.22c0,0,15.163-2.251,15.163-3.241s-3.201-4.006-3.201-4.006
					L385.593,366.805z"/>
				<path fill="#D8742A" d="M365.47,303.011c-0.271,1.486-10.277,40.991,18.354,64.675l8.294-1.901c0,0-9.652-9.054-14.201-25.346
					c-4.302-15.406-0.886-16.918,1.694-25.403c2.855-9.393,0.731-16.211,0.731-16.211L365.47,303.011z"/>
				<path fill="#EF832B" d="M351.785,302.89c-4.539,10.848-12.332,47.816,4.652,68.632l8.481-0.018c0,0-6.681-7.322-7.428-24.311
					c-0.746-16.987,3.572-24.445,6.619-30.051c3.046-5.605,5.865-15.132,5.865-15.132L351.785,302.89z"/>
				<path fill="#0B43A4" d="M345.8,235.64c-2.253,7.944-2.994,22.621,8.292,28.533l7.555-1.841c0,0-13.618-7.14-10.701-25.185
					L345.8,235.64z"/>
				<path fill="#0056EC" d="M324.99,231.573l5.863-0.724c0,0-0.705,24.623,27.731,26.696c21.707,1.583,23.413,42.318,23.413,42.318
					c-6.999,4.712-18.745,6.139-33.795,5.06c0,0,0.963-29.062-1.428-37.017C346.775,267.907,323.149,260.474,324.99,231.573z"/>
				<path fill="#FFB9A3" d="M317.82,227.104c-0.992,1.15,3.151,2.609,7.17,4.47l5.146-0.635c0,0,0.061-1.028-0.004-2.1
					s-0.602-1.683-1.212-0.763c-0.61,0.919-3.212,1.23-4.438,0.392C323.256,227.628,318.813,225.954,317.82,227.104z"/>
				<path fill="#FFB9A3" d="M345.8,235.64c-1.885-1.854-1.385-1.741-1.385-1.741l5.751,1.3c0,0,1.265-2.807,2.336-2.885
					c1.071-0.079-0.808,1.934-0.377,2.68c0.431,0.745-1.18,2.154-1.18,2.154L345.8,235.64z"/>
			</g>
			<g>
				<g>
					<path fill="#4A49CA" d="M373.337,239.767c1.178,0.301,2.384,0.421,3.359,1.226c0.968,0.798,1.405,2.166,0.707,3.28
						c-0.327,0.522,0.45,0.93,0.803,0.47c0.896-1.169,0.653-2.772-0.247-3.876c-1.037-1.273-2.966-1.8-4.551-1.63
						C373.125,239.268,373.021,239.686,373.337,239.767L373.337,239.767z"/>
				</g>
			</g>
			<g>
				<g>
					<path fill="#4A49CA" d="M378.537,250.436c0.779,0.458,1.435,1.203,1.104,2.166c-0.308,0.892-1.215,1.424-1.942,1.935
						c-0.351,0.246-0.049,0.785,0.339,0.58c1.08-0.57,2.223-1.373,2.391-2.686c0.147-1.147-0.622-2.021-1.575-2.535
						C378.499,249.704,378.189,250.23,378.537,250.436L378.537,250.436z"/>
				</g>
			</g>
			<g>
				<g>
					<path fill="#4A49CA" d="M365.404,256.396c2.65,1.647,6.397,1.38,8.588-0.937c0.271-0.285-0.095-0.826-0.439-0.57
						c-2.396,1.774-5.116,2.35-7.932,1.137C365.373,255.918,365.163,256.246,365.404,256.396L365.404,256.396z"/>
				</g>
			</g>
			<g>
				<g>
					<path fill="#4A49CA" d="M378.884,241.507c1.521,1.446-0.003,3.428-0.979,4.669c-0.215,0.274,0.125,0.643,0.393,0.393
						c0.869-0.813,1.737-1.705,1.855-2.954c0.089-0.938-0.297-1.831-1.133-2.286C378.91,241.269,378.787,241.415,378.884,241.507
						L378.884,241.507z"/>
				</g>
			</g>
		</g>
		<g>
			<polygon fill="#0B43A4" points="209.727,58.822 207.381,53.094 230.011,44.501 			"/>
			<polygon fill="#5193F4" points="210.867,55.292 230.011,44.501 216.685,58.036 			"/>
			<polygon fill="#5193F4" points="202.202,50.761 230.011,44.501 207.381,53.094 			"/>
			<polygon fill="#0056EC" points="210.867,55.292 209.727,58.822 213.181,56.383 			"/>
		</g>
		
			<path fill="none" stroke="#C8DBFB" stroke-linecap="round" stroke-linejoin="round" stroke-miterlimit="10" stroke-dasharray="4" d="
			M207.068,58.056c-5.907-0.999-13.927,4.975-10.478,11.199c1.174,2.119,7.232,1.199,6.781-1.143
			c-0.215-1.121-1.588-1.598-2.723-1.468c-6.604,0.757-6.866,6.292-6.574,7.701c1.512,7.279,12.668,4.817,16.419,3.79"/>
	</g>
</g>
<g id="DESIGNED_BY_FREEPIK">
	<g>
	</g>
	<g>
	</g>
	<g>
	</g>
	<g>
	</g>
	<g>
	</g>
	<g>
	</g>
</g>
</svg>
