<?xml version="1.0" encoding="utf-8"?>
<!-- Generator: Adobe Illustrator 17.0.0, SVG Export Plug-In . SVG Version: 6.00 Build 0)  -->
<!DOCTYPE svg PUBLIC "-//W3C//DTD SVG 1.1//EN" "http://www.w3.org/Graphics/SVG/1.1/DTD/svg11.dtd">
<svg version="1.1" id="Layer_1" xmlns="http://www.w3.org/2000/svg" xmlns:xlink="http://www.w3.org/1999/xlink" x="0px" y="0px"
	 width="841.89px" height="841.749px" viewBox="0 174.401 841.89 841.749" enable-background="new 0 174.401 841.89 841.749"
	 xml:space="preserve">
<circle fill="#FFB954" cx="538.945" cy="478.275" r="182.5"/>
<g>
	<g>
		<path d="M752.442,263.707c-119.076-119.075-312.823-119.075-431.898,0c-57.684,57.681-89.449,134.375-89.449,215.95
			c0,74.312,26.373,144.563,74.673,200.094l-36.371,36.371l-37.066-37.066c-4.061-4.061-9.572-6.344-15.315-6.344
			s-11.254,2.282-15.315,6.344L28.044,852.714C9.96,870.795,0,894.837,0,920.411c0,25.572,9.96,49.616,28.041,67.697
			c18.084,18.084,42.126,28.042,67.697,28.042s49.616-9.96,67.696-28.041l173.66-173.656c4.061-4.061,6.344-9.572,6.344-15.315
			s-2.282-11.254-6.344-15.315l-37.066-37.066l36.382-36.382c57.211,49.683,128.641,74.539,200.084,74.539
			c78.205,0,156.412-29.769,215.95-89.305c57.679-57.683,89.448-134.374,89.448-215.948
			C841.89,398.08,810.125,321.388,752.442,263.707z M132.803,957.477c-9.9,9.9-23.063,15.353-37.066,15.353
			c-14.001,0-27.166-5.454-37.066-15.355c-9.899-9.899-15.353-23.063-15.353-37.063c0-14,5.454-27.166,15.355-37.066l96.906-96.906
			l74.132,74.129L132.803,957.477z M260.345,829.937l-74.132-74.132L217.017,725l74.132,74.134L260.345,829.937z M721.81,664.974
			c-102.184,102.188-268.449,102.188-370.634,0c-49.5-49.5-76.762-115.313-76.762-185.318s27.261-135.817,76.762-185.316
			c51.092-51.092,118.205-76.64,185.318-76.64c67.111,0,134.226,25.544,185.318,76.64c49.501,49.499,76.762,115.313,76.762,185.316
			S771.311,615.474,721.81,664.974z"/>
	</g>
</g>
<g>
	<g>
		<path d="M686.065,330.081c-82.476-82.472-216.67-82.476-299.146,0c-82.472,82.476-82.472,216.67,0.002,299.146
			c41.238,41.235,95.403,61.854,149.572,61.854s108.336-20.62,149.574-61.854v-0.002
			C768.539,546.753,768.539,412.557,686.065,330.081z M655.433,598.597c-65.585,65.585-172.296,65.585-237.882,0.002
			c-65.585-65.585-65.585-172.298-0.002-237.883c32.796-32.798,75.862-49.188,118.943-49.188c43.07,0,86.152,16.4,118.94,49.188
			C721.018,426.298,721.018,533.011,655.433,598.597z"/>
	</g>
</g>
<g>
	<g>
		<path d="M617.146,399.003c-44.475-44.471-116.834-44.471-161.307,0c-8.458,8.458-8.458,22.172,0,30.634
			c8.458,8.458,22.172,8.458,30.634,0c27.578-27.582,72.462-27.582,100.043,0c4.231,4.231,9.772,6.344,15.315,6.344
			s11.088-2.115,15.315-6.344C625.605,421.178,625.605,407.463,617.146,399.003z"/>
	</g>
</g>
</svg>
